<svg id="color" enable-background="new 0 0 24 24" height="512" viewBox="0 0 24 24" width="512" xmlns="http://www.w3.org/2000/svg"><path d="m12 10c2.206 0 4-1.794 4-4s-1.794-4-4-4-4 1.794-4 4 1.794 4 4 4z" fill="#607d8b"/><path d="m15.25 12h-6.5c-2.619 0-4.75 2.131-4.75 4.75v2.5c0 .414.336.75.75.75h14.5c.414 0 .75-.336.75-.75v-2.5c0-2.619-2.131-4.75-4.75-4.75z" fill="#607d8b"/><path d="m12 2c-2.206 0-4 1.794-4 4s1.794 4 4 4z" fill="#546d79"/><path d="m12 12h-3.25c-2.619 0-4.75 2.131-4.75 4.75v2.5c0 .414.336.75.75.75h7.25z" fill="#546d79"/><path d="m5 0h-2c-1.654 0-3 1.346-3 3v2c0 .553.447 1 1 1s1-.447 1-1v-2c0-.552.449-1 1-1h2c.553 0 1-.447 1-1s-.447-1-1-1z" fill="#2196f3"/><path d="m23 18c-.553 0-1 .447-1 1v2c0 .552-.449 1-1 1h-2c-.553 0-1 .447-1 1s.447 1 1 1h2c1.654 0 3-1.346 3-3v-2c0-.553-.447-1-1-1z" fill="#2196f3"/><path d="m.876.883c-.541.543-.876 1.291-.876 2.117v2c0 .553.447 1 1 1s1-.447 1-1v-2c0-.274.111-.523.29-.703z" fill="#1d83d4"/><path d="m21.703 21.71c-.181.179-.429.29-.703.29h-2c-.553 0-1 .447-1 1s.447 1 1 1h2c.825 0 1.574-.335 2.117-.876z" fill="#1d83d4"/><path d="m5 22h-2c-.551 0-1-.448-1-1v-2c0-.553-.447-1-1-1s-1 .447-1 1v2c0 1.654 1.346 3 3 3h2c.553 0 1-.447 1-1s-.447-1-1-1z" fill="#2196f3"/><path d="m21 0h-2c-.553 0-1 .447-1 1s.447 1 1 1h2c.551 0 1 .448 1 1v2c0 .553.447 1 1 1s1-.447 1-1v-2c0-1.654-1.346-3-3-3z" fill="#2196f3"/><g fill="#1d83d4"><path d="m1 18c-.553 0-1 .447-1 1v2c0 .871.373 1.657.968 2.205l1.417-1.417c-.234-.183-.385-.468-.385-.788v-2c0-.553-.447-1-1-1z"/><path d="m21 0h-2c-.553 0-1 .447-1 1s.447 1 1 1h2c.319 0 .605.151.788.385l1.417-1.417c-.548-.595-1.334-.968-2.205-.968z"/></g></svg>