<svg id="_x33_0" enable-background="new 0 0 64 64" height="512" viewBox="0 0 64 64" width="512" xmlns="http://www.w3.org/2000/svg" xmlns:xlink="http://www.w3.org/1999/xlink"><linearGradient id="SVGID_1_" gradientUnits="userSpaceOnUse" x1="32" x2="32" y1="63" y2="1"><stop offset="0" stop-color="#9f2fff"/><stop offset="1" stop-color="#0bb1d3"/></linearGradient><path d="m47.052 28.682 1.896.637-.052.154c-.703 2.109-2.67 3.527-4.896 3.527s-4.193-1.418-4.896-3.529l-.052-.152 1.896-.637.052.154c.432 1.295 1.637 2.164 3 2.164s2.568-.869 3-2.162zm11.229-6.666-.766 1.9c.899.734 1.485 1.836 1.485 3.084 0 2.206-1.794 4-4 4h-1.214c-1.031 2.01-2.658 3.664-4.653 4.721l.688 3.444 5.232 1.162c2.243.499 4.268 1.761 5.701 3.553 1.428 1.785 2.214 4.028 2.214 6.314v12.806h-37.968v-12.806c0-2.286.787-4.528 2.215-6.314 1.434-1.791 3.458-3.053 5.699-3.553l5.233-1.162.691-3.457c-1.982-1.058-3.598-2.707-4.624-4.708h-1.214c-2.206 0-4-1.794-4-4 0-.617.152-1.195.403-1.718l-.514-.856c-1.236-2.061-1.889-4.419-1.889-6.821 0-2.107.85-4.086 2.344-5.538-.222-.772-.344-1.575-.344-2.391 0-1.723.51-3.325 1.379-4.676h-3.379v6h-2v-8h7.142c1.503-1.248 3.432-2 5.534-2 3.041 0 5.919 1.324 7.897 3.633l1.642 1.915c.854.995 2.033 1.682 3.32 1.932l.433.084c4.654.904 8.032 5.001 8.032 9.743 0 1.276-.242 2.524-.719 3.709zm-24.855 6.984c-.271-.955-.426-1.959-.426-3v-1c-1.103 0-2 .897-2 2s.897 2 2 2zm4.229 12.323 1.747 4.075 2.851-2.281-3.424-2.055zm-10.655 19.677h6v-4h-6zm33.969 0v-4h-5.969v4zm-6.349-18.72-2.292-.509-2.927 6.831-5.401-4.321-5.401 4.32-2.93-6.837-2.32.516c-1.798.4-3.422 1.412-4.571 2.85-1.147 1.433-1.778 3.231-1.778 5.064v4.806h6v-4h2v10h18v-10h2v4h5.969v-4.806c0-1.834-.631-3.633-1.776-5.064-1.15-1.438-2.774-2.449-4.573-2.85zm-5.456-1.212-3.416 2.049 2.851 2.281 1.744-4.069zm-1.913-4.559c-1.028.319-2.12.491-3.251.491-1.142 0-2.244-.176-3.281-.5l-.601 3.005 3.882 2.329 3.854-2.312zm5.749-13.509c0-1.654-1.346-3-3-3h-8.513c-1.581 0-2.975-.822-3.773-2.062l-.771.463c-1.199.719-1.943 2.034-1.943 3.43v4.169c0 4.963 4.037 9 9 9s9-4.037 9-9zm4 4c0-1.103-.897-2-2-2v1c0 1.041-.155 2.045-.426 3h.426c1.103 0 2-.897 2-2zm-1.301-3.929.727-1.802c.381-.947.574-1.944.574-2.962 0-3.786-2.697-7.058-6.414-7.78l-.433-.084c-1.728-.335-3.31-1.256-4.456-2.593l-1.642-1.916c-1.598-1.865-3.923-2.934-6.379-2.934-3.681 0-6.676 2.995-6.676 6.676 0 1.323.388 2.604 1.121 3.703l.711 1.066-1.664 1.109-.711-1.066c-.09-.135-.156-.281-.238-.42-.785.999-1.219 2.236-1.219 3.537 0 2.039.555 4.042 1.604 5.791l.17.283c.636-.428 1.402-.679 2.226-.679v-1.169c0-2.096 1.116-4.066 2.913-5.145l1.115-.669c-.018-.165-.028-.333-.028-.504 0-1.935 1.232-3.645 3.067-4.256l.617-.206.631 1.898-.616.205c-1.015.339-1.699 1.286-1.699 2.359 0 1.371 1.116 2.487 2.487 2.487h8.513c2.757 0 5 2.243 5 5 .239 0 .471.03.699.071zm-.699-18.071h6v6h2v-8h-8zm6 32h-6v2h8v-8h-2zm-36 2h8v-2h-6v-6h-2zm-12 24h-12v-6h12zm-10-2h2v-2h-2zm8-2h-4v2h4zm2-4h-12v-6h12zm-2-4h-8v2h8zm2-6h-12v2h12zm0-4h-12v2h12zm4 5.414 5.707-5.707-1.414-1.414-6.293 6.293v17.414h2zm6 12.586h-4v2h4zm0-4h-4v2h4zm0-4h-4v2h4zm-16-20h-6v-6h6zm-2-4h-2v2h2zm10 4h-6v-6h6zm-2-4h-2v2h2zm10 4h-6v-6h6zm-2-4h-2v2h2zm-18-12v4h22v-2h-4v-12h-2v12h-2v-8h-2v8h-2v-14h-2v14h-2v-6h-2v6h-2v-2z" fill="url(#SVGID_1_)"/></svg>