<svg id="Layer_1" enable-background="new 0 0 512 512" height="512" viewBox="0 0 512 512" width="512" xmlns="http://www.w3.org/2000/svg"><g><g><path d="m310.45 166.699c-1.248 0-2.512-.312-3.676-.968-3.608-2.034-4.884-6.608-2.85-10.217l29.387-51.955c1.329-2.357 3.826-3.816 6.533-3.816h34.029c4.142 0 7.5 3.357 7.5 7.5s-3.358 7.5-7.5 7.5h-29.648l-26.044 46.198c-1.377 2.444-5.112 5.758-7.731 5.758z" fill="#566b74"/></g><g><path d="m189.829 167.303c-1.91 0-3.82-.725-5.283-2.176l-53.14-52.729h-70.288c-4.142 0-7.5-3.357-7.5-7.5s3.358-7.5 7.5-7.5h73.378c1.979 0 3.878.782 5.283 2.176l55.333 54.904c2.94 2.918 2.958 7.667.041 10.606-1.466 1.479-3.395 2.219-5.324 2.219z" fill="#8bc6f8"/></g><g><path d="m172.156 412.486h-34.029c-4.142 0-7.5-3.357-7.5-7.5s3.358-7.5 7.5-7.5h29.648l26.044-46.198c2.034-3.607 6.609-4.884 10.216-2.85 3.608 2.034 4.884 6.608 2.85 10.217l-28.196 50.015c-1.329 2.357-3.826 3.816-6.533 3.816z" fill="#566b74"/></g><g><path clip-rule="evenodd" d="m393.719 127.089c10.952 0 19.846-8.893 19.846-19.846 0-10.952-8.893-19.817-19.846-19.817s-19.846 8.865-19.846 19.817c0 10.953 8.894 19.846 19.846 19.846z" fill="#ccf49f" fill-rule="evenodd"/></g><g><path clip-rule="evenodd" d="m98.436 404.986c0 10.952 8.893 19.846 19.846 19.846 10.952 0 19.846-8.893 19.846-19.846s-8.893-19.817-19.846-19.817-19.846 8.865-19.846 19.817z" fill="#ccf49f" fill-rule="evenodd"/></g><g><path clip-rule="evenodd" d="m70.984 276.847c32.6 41.15 79.125 67.201 129.369 78.125 10.323 2.259 20.789 3.86 31.341 4.833v-207.35c-14.155 1.287-28.167 3.746-41.865 7.349-46.183 12.153-88.533 37.346-118.845 75.608-12.526 15.841-12.526 25.593 0 41.435z" fill="#f6f9f9" fill-rule="evenodd"/></g><g><path clip-rule="evenodd" d="m322.172 352.455c46.183-12.153 88.533-37.346 118.845-75.608 12.525-15.842 12.525-25.594 0-41.436-32.571-41.15-79.125-67.201-129.369-78.153-10.323-2.23-20.789-3.832-31.341-4.804v207.35c14.155-1.315 28.167-3.746 41.865-7.349z" fill="#f6f9f9" fill-rule="evenodd"/></g><g><path d="m7.5 119.404c-4.142 0-7.5-3.357-7.5-7.5v-88.333c0-12.997 10.561-23.571 23.542-23.571h88.362c4.142 0 7.5 3.357 7.5 7.5s-3.358 7.5-7.5 7.5h-88.362c-4.71 0-8.542 3.845-8.542 8.571v88.333c0 4.143-3.358 7.5-7.5 7.5z" fill="#566b74"/></g><g><path d="m83.309 152.348h-22.191c-4.142 0-7.5-3.357-7.5-7.5s3.358-7.5 7.5-7.5h22.191c4.142 0 7.5 3.357 7.5 7.5s-3.358 7.5-7.5 7.5z" fill="#8bc6f8"/></g><g><path d="m134.496 72.45h-73.378c-4.142 0-7.5-3.357-7.5-7.5s3.358-7.5 7.5-7.5h73.378c4.142 0 7.5 3.357 7.5 7.5s-3.358 7.5-7.5 7.5z" fill="#8bc6f8"/></g><g><path d="m450.911 414.859h-73.406c-1.979 0-3.878-.782-5.283-2.176l-59.181-58.744c-2.94-2.918-2.958-7.667-.041-10.606 2.917-2.941 7.666-2.959 10.606-.042l56.988 56.568h70.317c4.142 0 7.5 3.357 7.5 7.5s-3.358 7.5-7.5 7.5z" fill="#8bc6f8"/></g><g><path d="m450.911 374.911h-22.219c-4.142 0-7.5-3.357-7.5-7.5s3.358-7.5 7.5-7.5h22.219c4.142 0 7.5 3.357 7.5 7.5s-3.358 7.5-7.5 7.5z" fill="#8bc6f8"/></g><g><path d="m450.911 454.809h-73.406c-4.142 0-7.5-3.357-7.5-7.5s3.358-7.5 7.5-7.5h73.406c4.142 0 7.5 3.357 7.5 7.5s-3.358 7.5-7.5 7.5z" fill="#8bc6f8"/></g><g><path d="m504.5 119.404c-4.142 0-7.5-3.357-7.5-7.5v-88.333c0-4.727-3.832-8.571-8.542-8.571h-88.362c-4.142 0-7.5-3.357-7.5-7.5s3.358-7.5 7.5-7.5h88.362c12.981 0 23.542 10.574 23.542 23.571v88.333c0 4.143-3.358 7.5-7.5 7.5z" fill="#566b74"/></g><g><path d="m111.904 512h-88.362c-12.981 0-23.542-10.561-23.542-23.542v-88.362c0-4.143 3.358-7.5 7.5-7.5s7.5 3.357 7.5 7.5v88.362c0 4.71 3.832 8.542 8.542 8.542h88.362c4.142 0 7.5 3.357 7.5 7.5s-3.358 7.5-7.5 7.5z" fill="#566b74"/></g><g><path d="m488.458 512h-88.362c-4.142 0-7.5-3.357-7.5-7.5s3.358-7.5 7.5-7.5h88.362c4.71 0 8.542-3.832 8.542-8.542v-88.362c0-4.143 3.358-7.5 7.5-7.5s7.5 3.357 7.5 7.5v88.362c0 12.981-10.561 23.542-23.542 23.542z" fill="#566b74"/></g><g><path clip-rule="evenodd" d="m322.172 352.455c46.183-12.153 88.533-37.346 118.845-75.608 12.525-15.842 12.525-25.594 0-41.436-1.201-1.516-2.431-3.031-3.689-4.49-.801 5.433-3.861 11.067-9.179 17.787-21.733 27.481-49.7 48.213-80.841 62.197-14.613 24.307-38.605 42.265-67.001 48.899 14.155-1.315 28.167-3.746 41.865-7.349z" fill="#e7ecf1" fill-rule="evenodd"/></g><g><path clip-rule="evenodd" d="m256 360.919c8.121 0 16.243-.372 24.307-1.115 47.098-10.981 82.157-53.246 82.157-103.689 0-50.415-35.059-92.68-82.157-103.661-8.064-.772-16.185-1.144-24.307-1.144-8.121 0-16.243.372-24.307 1.144-47.098 10.981-82.157 53.246-82.157 103.661 0 50.444 35.059 92.709 82.157 103.689 8.065.744 16.186 1.115 24.307 1.115z" fill="#b1d7fe" fill-rule="evenodd"/></g><g><path clip-rule="evenodd" d="m256 317.739c33.629 0 60.995-26.938 61.625-60.424v-1.201c0-34.029-27.595-61.625-61.625-61.625-34.029 0-61.625 27.595-61.625 61.625v1.201c.658 33.487 27.996 60.424 61.625 60.424z" fill="#808b95" fill-rule="evenodd"/></g><g><path clip-rule="evenodd" d="m256 317.739c33.629 0 60.995-26.938 61.625-60.424v-1.201c0-29.111-20.217-53.532-47.355-59.966 11.038 11.153 17.873 26.48 17.873 43.409v1.201c-.629 33.486-27.996 60.424-61.625 60.424-4.919 0-9.694-.572-14.269-1.659 11.18 11.268 26.651 18.216 43.751 18.216z" fill="#566b74" fill-rule="evenodd"/></g><g><path clip-rule="evenodd" d="m280.307 359.804c47.098-10.981 82.157-53.246 82.157-103.689 0-47.012-30.455-86.904-72.748-101.001 26.623 19.36 43.895 50.729 43.895 86.131 0 73.635-72.405 123.649-140.178 101.03 11.267 8.207 24.249 14.269 38.262 17.529 8.064.743 16.185 1.115 24.307 1.115 8.12 0 16.241-.371 24.305-1.115z" fill="#8bc6f8" fill-rule="evenodd"/></g><path d="m328.177 249.815h-3.352c-2.969-32.695-28.791-58.884-61.325-62.411v-2.265c0-4.143-3.358-7.5-7.5-7.5s-7.5 3.357-7.5 7.5v2.265c-32.533 3.527-58.355 29.716-61.325 62.411h-3.352c-4.142 0-7.5 3.357-7.5 7.5s3.358 7.5 7.5 7.5h3.619c3.985 31.568 29.325 56.569 61.058 60.01v4.667c0 4.143 3.358 7.5 7.5 7.5s7.5-3.357 7.5-7.5v-4.667c31.733-3.44 57.073-28.442 61.058-60.01h3.619c4.142 0 7.5-3.357 7.5-7.5s-3.358-7.5-7.5-7.5zm-64.677 59.893v-5.237c0-4.143-3.358-7.5-7.5-7.5s-7.5 3.357-7.5 7.5v5.237c-23.451-3.267-42.136-21.607-45.916-44.892h5.117c4.142 0 7.5-3.357 7.5-7.5s-3.358-7.5-7.5-7.5h-5.448c2.845-24.416 21.995-43.916 46.246-47.294v5.265c0 4.143 3.358 7.5 7.5 7.5s7.5-3.357 7.5-7.5v-5.265c24.252 3.378 43.402 22.878 46.246 47.294h-5.448c-4.142 0-7.5 3.357-7.5 7.5s3.358 7.5 7.5 7.5h5.117c-3.778 23.285-22.462 41.625-45.914 44.892z" fill="#ff8389"/></g></svg>