<svg id="Capa_1" enable-background="new 0 0 511.234 511.234" height="512" viewBox="0 0 511.234 511.234" width="512" xmlns="http://www.w3.org/2000/svg"><g><path d="m463.517 97.564h-415.8c-22.57 0-40.88 18.3-40.88 40.88v204.47l47.953 41.013h422.388l26.919-41.013.3-204.47c0-22.58-18.31-40.88-40.88-40.88z" fill="#f9f7f8"/><g><path d="m316.703 469.449v-81.987h-122.172v81.987l-28.474 35.285h179.12z" fill="#baafb9"/><g id="XMLID_198_"><g><path d="m316.703 387.462h-89.631-7.905-24.635v81.988l-28.474 35.285h32.541l21.477-26.613c4.528-5.611 6.998-12.604 6.998-19.814v-14.717c0-9.458 7.667-17.126 17.126-17.126h72.505v-39.003z" fill="#aa9ea9"/><path d="m504.097 342.914-.03 22.81c-.08 22.52-18.36 40.74-40.88 40.74h-415.47c-22.57 0-40.88-18.31-40.88-40.88v-22.67h.59 496.5z" fill="#baafb9"/></g></g><g><path d="m255.617 383.666c-4.142 0-7.5-3.358-7.5-7.5v-6.275c0-4.142 3.358-7.5 7.5-7.5s7.5 3.358 7.5 7.5v6.275c0 4.142-3.358 7.5-7.5 7.5z" fill="#aa9ea9"/></g><path d="m256.117 263.694c35 0 89.803-13.918 152.122-80.225 22.404-23.836 24.157-60.104 5.293-85.905h-314.83c-18.863 25.802-17.111 62.069 5.293 85.905 62.319 66.306 117.122 80.225 152.122 80.225z" fill="#efedef"/><path d="m393.666 104.857c17.154 18.251 17.154 46.664 0 64.915-29.407 31.288-80.031 73.922-137.549 73.922s-108.142-42.634-137.549-73.922c-17.154-18.251-17.154-46.664 0-64.915 29.407-31.288 80.031-73.922 137.549-73.922s108.142 42.634 137.549 73.922z" fill="#eaf6ff"/><circle cx="256.117" cy="137.314" fill="#b5adb6" r="50.876"/><path d="m241.313 137.314c0-21.704 13.693-40.268 32.867-47.564-5.61-2.135-11.714-3.312-18.064-3.312-28.053 0-50.876 22.823-50.876 50.876s22.823 50.876 50.876 50.876c6.35 0 12.454-1.182 18.064-3.317-19.174-7.295-32.867-25.855-32.867-47.559z" fill="#a79ba7"/><g><g><path d="m212.536 212.934c-1.385 0-2.787-.383-4.04-1.187-25.52-16.358-40.755-44.184-40.755-74.433s15.236-58.075 40.755-74.433c3.487-2.236 8.126-1.221 10.361 2.267s1.221 8.126-2.267 10.361c-21.196 13.587-33.85 36.691-33.85 61.805s12.654 48.218 33.85 61.805c3.487 2.235 4.502 6.874 2.267 10.361-1.431 2.234-3.85 3.454-6.321 3.454z" fill="#d8ecfe"/></g><g><path d="m299.698 212.934c-2.471 0-4.889-1.219-6.321-3.454-2.235-3.487-1.221-8.126 2.267-10.361 21.196-13.587 33.85-36.691 33.85-61.805s-12.654-48.218-33.85-61.805c-3.487-2.235-4.502-6.874-2.267-10.361 2.234-3.487 6.872-4.503 10.361-2.267 25.52 16.358 40.755 44.184 40.755 74.433s-15.236 58.075-40.755 74.433c-1.253.803-2.655 1.187-4.04 1.187z" fill="#d8ecfe"/></g></g><g><g><g><path d="m385.931 55.754c-4.142 0-7.5-3.358-7.5-7.5v-33.254h-33.254c-4.142 0-7.5-3.358-7.5-7.5s3.358-7.5 7.5-7.5h40.754c4.142 0 7.5 3.358 7.5 7.5v40.754c0 4.142-3.358 7.5-7.5 7.5z" fill="#b3dafe"/></g><g><path d="m385.931 274.628h-40.754c-4.142 0-7.5-3.358-7.5-7.5s3.358-7.5 7.5-7.5h33.254v-33.254c0-4.142 3.358-7.5 7.5-7.5s7.5 3.358 7.5 7.5v40.754c0 4.143-3.358 7.5-7.5 7.5z" fill="#b3dafe"/></g></g><g><g><path d="m167.057 274.628h-40.754c-4.142 0-7.5-3.358-7.5-7.5v-40.754c0-4.142 3.358-7.5 7.5-7.5s7.5 3.358 7.5 7.5v33.254h33.254c4.142 0 7.5 3.358 7.5 7.5s-3.358 7.5-7.5 7.5z" fill="#b3dafe"/></g><g><path d="m126.303 55.754c-4.142 0-7.5-3.358-7.5-7.5v-40.754c0-4.142 3.358-7.5 7.5-7.5h40.754c4.142 0 7.5 3.358 7.5 7.5s-3.358 7.5-7.5 7.5h-33.254v33.254c0 4.142-3.358 7.5-7.5 7.5z" fill="#b3dafe"/></g></g></g></g><g><path d="m358.469 511.234h-206.563c-4.142 0-7.5-3.358-7.5-7.5s3.358-7.5 7.5-7.5h206.563c4.142 0 7.5 3.358 7.5 7.5s-3.358 7.5-7.5 7.5z" fill="#baafb9"/></g></g></svg>