<svg id="flat" height="512" viewBox="0 0 512 512" width="512" xmlns="http://www.w3.org/2000/svg"><path d="m128 280-13.881-41.642a197.2 197.2 0 0 1 -10.119-62.358 152 152 0 0 1 152-152 152 152 0 0 1 152 152 197.2 197.2 0 0 1 -10.119 62.358l-13.881 41.642z" fill="#9e6e4d"/><path d="m256 24a151.377 151.377 0 0 0 -97.2 35.14 151.544 151.544 0 0 1 57.2-11.14 152 152 0 0 1 152 152 197.2 197.2 0 0 1 -10.119 62.358l-5.881 17.642h32l13.881-41.642a197.2 197.2 0 0 0 10.119-62.358 152 152 0 0 0 -152-152z" fill="#7e5138"/><path d="m349.521 430.066-51.084 42.57a66.292 66.292 0 0 1 -42.437 15.364 66.292 66.292 0 0 1 -42.437-15.364l-51.084-42.57a80 80 0 0 1 -28.629-56.466l-5.85-93.6 10.237-102.368a64 64 0 0 1 63.682-57.632h108.162a64 64 0 0 1 63.682 57.632l10.237 102.368-5.85 93.6a80 80 0 0 1 -28.629 56.466z" fill="#fccca7"/><path d="m376 240h24a16 16 0 0 1 16 16v40a40 40 0 0 1 -40 40z" fill="#cc9d7d"/><path d="m136 240h-24a16 16 0 0 0 -16 16v40a40 40 0 0 0 40 40z" fill="#e5b391"/><path d="m281.748 344h-25.748v-88l1.4 2.245c3.269 29.727 11.788 59.982 24.348 85.755z" fill="#e5b391"/><path d="m208 392 32-16 16 8 16-8 32 16-32 16h-32z" fill="#e0300e"/><path d="m304 392h-8c2.517 0 5.011.093 7.486.257z" fill="#b20d24"/><path d="m296 392h-88l31.082 15.541a111.457 111.457 0 0 1 56.918-15.541z" fill="#b20d24"/><path d="m280 256 9.662-7.515c6.985-5.433 16.459-8.485 26.338-8.485 9.879 0 19.353 3.052 26.338 8.485l9.662 7.515-9.662 7.515c-6.985 5.433-16.459 8.485-26.338 8.485-9.879 0-19.353-3.052-26.338-8.485z" fill="#ededeb"/><path d="m341.991 248.229c-6.951-5.269-16.272-8.229-25.991-8.229-9.879 0-19.353 3.052-26.338 8.485l-9.662 7.515 3.093 2.406a231.408 231.408 0 0 1 58.898-10.177z" fill="#cececc"/><circle cx="316" cy="256" fill="#3f484f" r="12"/><path d="m326.05 249.454a11.986 11.986 0 0 0 -21.629 3.437q10.644-2.215 21.629-3.437z" fill="#2a3135"/><path d="m160 256 9.662-7.515c6.985-5.433 16.459-8.485 26.338-8.485 9.879 0 19.353 3.052 26.338 8.485l9.662 7.515-9.662 7.515c-6.985 5.433-16.459 8.485-26.338 8.485-9.879 0-19.353-3.052-26.338-8.485z" fill="#ededeb"/><path d="m221.722 248.029a43.457 43.457 0 0 0 -25.722-8.029c-9.879 0-19.353 3.052-26.338 8.485l-9.662 7.515 3.458 2.69a175.56 175.56 0 0 1 58.264-10.661z" fill="#cececc"/><path d="m373.763 177.632a63.893 63.893 0 0 0 -25.1-44.694c.071.568.154 1.132.211 1.705l11.126 111.27-6.359 101.738a86.949 86.949 0 0 1 -31.119 61.377l-55.522 46.272a71.831 71.831 0 0 1 -54.846 16.159l1.412 1.176a66.286 66.286 0 0 0 84.874 0l51.084-42.569a80 80 0 0 0 28.626-56.466l5.85-93.6z" fill="#e5b391"/><path d="m280 224v-16l32-8 48 24-56-8z" fill="#7e5138"/><path d="m232 224v-16l-32-8-48 24 56-8z" fill="#7e5138"/><path d="m32 104h-16v-80a8 8 0 0 1 8-8h80v16h-72z" fill="#3098c6"/><path d="m496 104h-16v-72h-72v-16h80a8 8 0 0 1 8 8z" fill="#3098c6"/><path d="m488 496h-80v-16h72v-72h16v80a8 8 0 0 1 -8 8z" fill="#3098c6"/><path d="m104 496h-80a8 8 0 0 1 -8-8v-80h16v72h72z" fill="#3098c6"/><path d="m232 252h48v8h-48z" fill="#b7b2a5"/><path d="m223.285 347.936-88-16a4 4 0 0 1 -3.08-5.2l24-72 7.59 2.53-22.542 67.624 83.462 15.174z" fill="#b7b2a5"/><path d="m288 348h-64a4 4 0 0 1 -3.983-4.362l7.83-86.135-38.676-38.674 5.658-5.658 40 40a4 4 0 0 1 1.154 3.191l-7.603 83.638h55.24l-7.6-83.638a4 4 0 0 1 1.154-3.191l40-40 5.658 5.658-38.679 38.671 7.83 86.135a4 4 0 0 1 -3.983 4.365z" fill="#b7b2a5"/><path d="m288.715 347.936-1.43-7.872 83.462-15.174-22.542-67.625 7.59-2.53 24 72a4 4 0 0 1 -3.08 5.2z" fill="#b7b2a5"/><path d="m256 492a4 4 0 0 1 -3.578-2.211l-48-96 7.156-3.578 44.422 88.845 44.422-88.845 7.156 3.578-48 96a4 4 0 0 1 -3.578 2.211z" fill="#b7b2a5"/><path d="m355.677 257.576-7.354-3.152 20.686-48.267-47.909 13.689a4 4 0 0 1 -1.1.154h-128a4 4 0 0 1 -1.1-.154l-47.91-13.689 20.686 48.267-7.354 3.152-24-56a4 4 0 0 1 4.776-5.422l55.462 15.846h126.88l55.46-15.846a4 4 0 0 1 4.776 5.422z" fill="#b7b2a5"/><path d="m168 311.834h8v96.333h-8z" fill="#b7b2a5" transform="matrix(.664 -.747 .747 .664 -211.338 249.383)"/><path d="m291.834 356h96.333v8h-96.333z" fill="#b7b2a5" transform="matrix(.747 -.664 .664 .747 -153.288 316.786)"/><g fill="#666"><circle cx="136" cy="200" r="8"/><circle cx="192" cy="216" r="8"/><circle cx="320" cy="216" r="8"/><circle cx="376" cy="200" r="8"/><circle cx="352" cy="256" r="8"/><circle cx="376" cy="328" r="8"/><circle cx="232" cy="256" r="8"/><circle cx="280" cy="256" r="8"/><circle cx="160" cy="256" r="8"/><circle cx="136" cy="328" r="8"/><circle cx="256" cy="487.056" r="8"/></g><path d="m228 342.111h8v35.777h-8z" fill="#b7b2a5" transform="matrix(.894 -.447 .447 .894 -136.504 141.76)"/><path d="m262.111 356h35.777v8h-35.777z" fill="#b7b2a5" transform="matrix(.447 -.894 .894 .447 -167.218 449.418)"/><circle cx="288" cy="344" fill="#666" r="8"/><circle cx="224" cy="344" fill="#666" r="8"/><path d="m302.211 395.578-31.155-15.578h-30.112l-31.155 15.578-3.578-7.156 32.845-16.422h33.888l32.845 16.422z" fill="#b7b2a5"/><circle cx="208" cy="392" fill="#666" r="8"/><circle cx="272" cy="376" fill="#666" r="8"/><circle cx="240" cy="376" fill="#666" r="8"/><circle cx="304" cy="392" fill="#666" r="8"/><circle cx="196" cy="256" fill="#3f484f" r="12"/><path d="m205.7 248.959a11.991 11.991 0 0 0 -21.168 3.488 175.691 175.691 0 0 1 21.168-3.488z" fill="#2a3135"/></svg>