<?xml version="1.0"?>
<svg xmlns="http://www.w3.org/2000/svg" id="Layer_1" height="512px" viewBox="0 0 150 150" width="512px" data-name="Layer 1" class=""><g><circle cx="75" cy="75" fill="#45b39c" r="64" data-original="#45B39C" class="" style="fill:#099E96" data-old_color="#45b39c"/><g fill="#ebf0f3"><path d="m88.11 47.77a.5.5 0 0 1 -.27-.07 25.09 25.09 0 0 0 -25.69-.46.53.53 0 0 1 -.73-.15.52.52 0 0 1 .15-.73 26.19 26.19 0 0 1 26.81.43.52.52 0 0 1 .18.72.52.52 0 0 1 -.45.26z" data-original="#EBF0F3" class="active-path" data-old_color="#EBF0F3" style="fill:#FFFFFF"/><path d="m91.24 53.09a.53.53 0 0 1 -.32-.1c-16.5-12.41-32.57-.14-32.73 0a.53.53 0 0 1 -.65-.83c.17-.13 16.87-12.89 34 0a.52.52 0 0 1 -.31.94z" data-original="#EBF0F3" class="active-path" data-old_color="#EBF0F3" style="fill:#FFFFFF"/><path d="m96.1 63.06a.53.53 0 0 1 -.46-.26c-3.7-6.34-12.21-10.48-12.29-10.52a.53.53 0 1 1 .45-1c.36.17 8.88 4.32 12.75 10.94a.53.53 0 0 1 -.19.72z" data-original="#EBF0F3" class="active-path" data-old_color="#EBF0F3" style="fill:#FFFFFF"/><path d="m54.36 61.78a.51.51 0 0 1 -.29-.08.53.53 0 0 1 -.15-.73 27.88 27.88 0 0 1 16.76-11 .52.52 0 0 1 .62.41.54.54 0 0 1 -.41.62 27.29 27.29 0 0 0 -16.09 10.55.53.53 0 0 1 -.44.23z" data-original="#EBF0F3" class="active-path" data-old_color="#EBF0F3" style="fill:#FFFFFF"/><path d="m82.38 51.87-.26-.07c-3.12-1.8-9.41-1.1-9.48-1.09a.53.53 0 1 1 -.11-1.05c.27 0 6.68-.73 10.12 1.23a.53.53 0 0 1 .19.72.52.52 0 0 1 -.46.26z" data-original="#EBF0F3" class="active-path" data-old_color="#EBF0F3" style="fill:#FFFFFF"/><path d="m53.25 68.2-.25-.07a.53.53 0 0 1 -.2-.72c.1-.18 10.55-18.26 26.86-13.62a.52.52 0 0 1 .36.65.52.52 0 0 1 -.65.36c-15.51-4.41-25.56 13-25.66 13.13a.51.51 0 0 1 -.46.27z" data-original="#EBF0F3" class="active-path" data-old_color="#EBF0F3" style="fill:#FFFFFF"/><path d="m96.1 69.69a.53.53 0 0 1 -.49-.33c-3.43-8.26-14.61-13.89-14.71-13.94a.53.53 0 1 1 .47-.94c.47.23 11.63 5.85 15.21 14.52a.51.51 0 0 1 -.28.68z" data-original="#EBF0F3" class="active-path" data-old_color="#EBF0F3" style="fill:#FFFFFF"/><path d="m85.35 62.53a.53.53 0 0 1 -.38-.17c-8.79-9.31-19.16-1.66-19.6-1.36a.53.53 0 0 1 -.64-.84c.12-.08 11.56-8.55 21 1.45a.52.52 0 0 1 0 .74.51.51 0 0 1 -.38.18z" data-original="#EBF0F3" class="active-path" data-old_color="#EBF0F3" style="fill:#FFFFFF"/><path d="m96.75 77.15a.51.51 0 0 1 -.48-.33c-3-7.21-10-13.1-10.09-13.15a.52.52 0 0 1 -.07-.74.53.53 0 0 1 .74-.08c.3.25 7.34 6.12 10.39 13.57a.53.53 0 0 1 -.29.69z" data-original="#EBF0F3" class="active-path" data-old_color="#EBF0F3" style="fill:#FFFFFF"/><path d="m53.76 75h-.23a.52.52 0 0 1 -.24-.7 33.8 33.8 0 0 1 10.27-12.7.53.53 0 1 1 .58.88 33.45 33.45 0 0 0 -9.91 12.28.53.53 0 0 1 -.47.24z" data-original="#EBF0F3" class="active-path" data-old_color="#EBF0F3" style="fill:#FFFFFF"/><path d="m85.35 66.89a.52.52 0 0 1 -.38-.17c-3.29-3.59-6.71-5.42-10.15-5.42a11.43 11.43 0 0 0 -7.68 3.3.53.53 0 0 1 -.75 0 .53.53 0 0 1 0-.74 12.35 12.35 0 0 1 8.46-3.64c3.75 0 7.43 1.94 10.92 5.76a.52.52 0 0 1 0 .74.54.54 0 0 1 -.42.17z" data-original="#EBF0F3" class="active-path" data-old_color="#EBF0F3" style="fill:#FFFFFF"/><path d="m96.1 80.78a.5.5 0 0 1 -.48-.31c-3.16-7.14-9.76-12.91-9.83-13a.54.54 0 0 1 -.05-.75.52.52 0 0 1 .74-.05c.28.24 6.84 6 10.1 13.34a.54.54 0 0 1 -.27.69z" data-original="#EBF0F3" class="active-path" data-old_color="#EBF0F3" style="fill:#FFFFFF"/><path d="m53.25 81.81-.25-.06a.53.53 0 0 1 -.22-.71 68.94 68.94 0 0 1 12.4-16.47.52.52 0 0 1 .74 0 .51.51 0 0 1 0 .74 67.41 67.41 0 0 0 -12.21 16.23.54.54 0 0 1 -.46.27z" data-original="#EBF0F3" class="active-path" data-old_color="#EBF0F3" style="fill:#FFFFFF"/><path d="m96.75 87.11a.52.52 0 0 1 -.48-.31 64.9 64.9 0 0 0 -13.06-18.07c-8.34-8-15.86-1-16.17-.68 0 0-3.89 4.06-5.93 6.75a.53.53 0 1 1 -.84-.63c2.08-2.75 5.86-6.69 6-6.86s8.57-8.05 17.65.66a66.13 66.13 0 0 1 13.29 18.4.53.53 0 0 1 -.26.7z" data-original="#EBF0F3" class="active-path" data-old_color="#EBF0F3" style="fill:#FFFFFF"/><path d="m56.94 96.36a.53.53 0 0 1 0-1c10.34-.58 17.06-2.76 20.61-6.72 2.33-2.62 3.26-6 2.94-10.73-.26-3.91-1.4-6.54-3.39-7.91-2.22-1.48-5-1-7-.37-5.1 1.71-14.31 17.07-14.4 17.23a.52.52 0 0 1 -.9-.54c.38-.65 9.53-15.86 15-17.66 3.14-1 5.87-.86 7.9.5 2.28 1.53 3.58 4.45 3.86 8.68.34 5-.68 8.65-3.21 11.5-3.71 4.18-10.7 6.48-21.36 7z" data-original="#EBF0F3" class="active-path" data-old_color="#EBF0F3" style="fill:#FFFFFF"/><path d="m57.48 94a.53.53 0 0 1 -.52-.45.52.52 0 0 1 .45-.59c12.59-1.75 18.85-5.82 19.85-12.78.54-3.72-.09-6.43-1.75-7.62a4.41 4.41 0 0 0 -4.64 0c-3.87 2.02-13.87 16.44-13.94 16.6a.53.53 0 0 1 -.73.13.52.52 0 0 1 -.13-.73c.41-.6 10.22-14.8 14.32-16.89a5.4 5.4 0 0 1 5.73 0c2 1.43 2.78 4.49 2.18 8.62-1.08 7.53-7.67 11.89-20.74 13.71z" data-original="#EBF0F3" class="active-path" data-old_color="#EBF0F3" style="fill:#FFFFFF"/><path d="m57.48 91.89a.53.53 0 0 1 -.08-1c6-1 13.57-4.29 16.27-8.66 1.2-2 1.45-3.74.69-4.91a3.19 3.19 0 0 0 -3.3-1.12c-2.8.41-8.62 9.18-10.62 12.53a.53.53 0 0 1 -.91-.54c.77-1.27 7.57-12.48 11.38-13a4.21 4.21 0 0 1 4.32 1.58c1 1.52.76 3.73-.67 6-2.86 4.64-10.72 8.12-17 9.15z" data-original="#EBF0F3" class="active-path" data-old_color="#EBF0F3" style="fill:#FFFFFF"/><path d="m65.05 86.43a.52.52 0 0 1 -.2-1c.06 0 5.14-2.11 6.73-5.39a2.76 2.76 0 0 0 .15-.34 23.09 23.09 0 0 0 -4.16 2.89.52.52 0 0 1 -.74-.07.53.53 0 0 1 .07-.74c4.64-3.86 5.39-3.27 5.67-3 .59.47.15 1.38 0 1.77-1.77 3.64-7.06 5.81-7.28 5.9z" data-original="#EBF0F3" class="active-path" data-old_color="#EBF0F3" style="fill:#FFFFFF"/><path d="m96.1 91h-.2c-7.42-3-13.18-17.92-13.42-18.56a.52.52 0 0 1 1-.37c.06.15 5.83 15.1 12.83 18a.52.52 0 0 1 -.19 1z" data-original="#EBF0F3" class="active-path" data-old_color="#EBF0F3" style="fill:#FFFFFF"/><path d="m94.17 95a.52.52 0 0 1 -.27-.07c-7.63-4.76-10.7-14.64-10.83-15.06a.52.52 0 0 1 .35-.65.53.53 0 0 1 .66.35c0 .1 3.09 9.92 10.37 14.46a.53.53 0 0 1 .17.73.52.52 0 0 1 -.45.24z" data-original="#EBF0F3" class="active-path" data-old_color="#EBF0F3" style="fill:#FFFFFF"/><path d="m59.15 99.59a.53.53 0 0 1 -.53-.53.52.52 0 0 1 .53-.52c19.54 0 24.32-12 24.37-12.14a.51.51 0 0 1 .67-.3.52.52 0 0 1 .31.67c-.05.13-5.04 12.82-25.35 12.82z" data-original="#EBF0F3" class="active-path" data-old_color="#EBF0F3" style="fill:#FFFFFF"/><path d="m92.25 98.93-.25-.06a15.45 15.45 0 0 1 -7.14-7.87.53.53 0 0 1 1-.35 14.71 14.71 0 0 0 6.64 7.25.52.52 0 0 1 .22.71.51.51 0 0 1 -.47.32z" data-original="#EBF0F3" class="active-path" data-old_color="#EBF0F3" style="fill:#FFFFFF"/><path d="m63.42 103.41a.53.53 0 0 1 -.05-1c12.52-1.27 19.14-8.71 19.2-8.78a.54.54 0 0 1 .75 0 .52.52 0 0 1 .05.74c-.28.32-7 7.82-19.89 9.14z" data-original="#EBF0F3" class="active-path" data-old_color="#EBF0F3" style="fill:#FFFFFF"/><path d="m89.53 101.32h-.21a17.67 17.67 0 0 1 -5.48-4.07.52.52 0 0 1 .79-.69 17.09 17.09 0 0 0 5.12 3.8.53.53 0 0 1 .26.7.54.54 0 0 1 -.48.26z" data-original="#EBF0F3" class="active-path" data-old_color="#EBF0F3" style="fill:#FFFFFF"/><path d="m67.24 107.13a.52.52 0 0 1 -.46-.26.53.53 0 0 1 .19-.72 23.19 23.19 0 0 1 19.45-.91.53.53 0 1 1 -.4 1 22.51 22.51 0 0 0 -18.52.84z" data-original="#EBF0F3" class="active-path" data-old_color="#EBF0F3" style="fill:#FFFFFF"/><path d="m82.38 71.63a.52.52 0 0 1 -.47-.3c-1.42-2.92-5.24-4.15-5.28-4.16a.53.53 0 0 1 .32-1c.17.06 4.28 1.38 5.91 4.71a.53.53 0 0 1 -.25.7z" data-original="#EBF0F3" class="active-path" data-old_color="#EBF0F3" style="fill:#FFFFFF"/><path d="m87.72 104.26h-.11a9.58 9.58 0 0 1 -6-4.28c-1.93 1.9-5.77 2.75-6.26 2.75a.53.53 0 0 1 0-1c.37 0 4.52-.92 5.93-2.91a.53.53 0 0 1 .9.07 8.78 8.78 0 0 0 5.69 4.39.53.53 0 0 1 -.1 1z" data-original="#EBF0F3" class="active-path" data-old_color="#EBF0F3" style="fill:#FFFFFF"/><path d="m92.94 85.55a.53.53 0 0 1 -.48-.32c-1.79-4.15-6.3-9.34-6.34-9.39a.52.52 0 0 1 .79-.69c.19.22 4.66 5.36 6.52 9.66a.54.54 0 0 1 -.28.7z" data-original="#EBF0F3" class="active-path" data-old_color="#EBF0F3" style="fill:#FFFFFF"/><path d="m55.57 82.7a.5.5 0 0 1 -.28-.08.52.52 0 0 1 -.16-.72l4.15-6.62a.53.53 0 0 1 .73-.16.52.52 0 0 1 .16.72l-4.17 6.62a.54.54 0 0 1 -.43.24z" data-original="#EBF0F3" class="active-path" data-old_color="#EBF0F3" style="fill:#FFFFFF"/></g><path d="m109.61 109.61h-15.81v-2.04h13.77v-13.77h2.04z" fill="#3a556a" data-original="#3A556A" class="" style="fill:#FFFFFF" data-old_color="#3a556a"/><path d="m56.2 109.61h-15.81v-15.81h2.04v13.77h13.77z" fill="#3a556a" data-original="#3A556A" class="" style="fill:#FFFFFF" data-old_color="#3a556a"/><path d="m42.43 56.2h-2.04v-15.81h15.81v2.04h-13.77z" fill="#3a556a" data-original="#3A556A" class="" style="fill:#FFFFFF" data-old_color="#3a556a"/><path d="m109.61 56.2h-2.04v-13.77h-13.77v-2.04h15.81z" fill="#3a556a" data-original="#3A556A" class="" style="fill:#FFFFFF" data-old_color="#3a556a"/><path d="m40.39 61.47h69.21v3.45h-69.21z" fill="#e56353" data-original="#E56353" class="" style="fill:#099E96" data-old_color="#e56353"/></g> </svg>
