<svg id="Capa_1" enable-background="new 0 0 512.381 512.381" height="512" viewBox="0 0 512.381 512.381" width="512" xmlns="http://www.w3.org/2000/svg"><g><g id="XMLID_165_"><g><g><path d="m256.19 56.84c114.04 0 206.49 92.44 206.49 206.48s-92.45 206.49-206.49 206.49-206.49-92.45-206.49-206.49 92.45-206.48 206.49-206.48z" fill="#f9f7f8"/></g></g></g><path d="m112.045 263.32c0-95.79 61.795-177.154 147.669-206.445-1.163-.019-2.356-.035-3.524-.035-114.04 0-206.49 92.44-206.49 206.48s92.45 206.49 206.49 206.49c1.169 0 2.36-.016 3.524-.036-85.875-29.292-147.669-110.663-147.669-206.454z" fill="#efedef"/><g><g><path d="m376.938 313.651c-.804 0-1.621-.13-2.423-.404l-13.486-4.604c-12.914-4.408-21.591-16.538-21.591-30.185v-22.473c0-4.142 3.358-7.5 7.5-7.5s7.5 3.358 7.5 7.5v22.473c0 7.229 4.596 13.654 11.437 15.989l13.486 4.604c3.92 1.338 6.013 5.601 4.675 9.521-1.065 3.117-3.979 5.079-7.098 5.079z" fill="#f37c7c"/></g><g><path d="m256.19 447.555c-16.183 0-32.304-2.085-47.916-6.198-2.824-.744-4.96-3.06-5.473-5.935l-.019-.104c-.728-4.078 1.988-7.973 6.066-8.701 1.525-.272 3.026-.062 4.343.52 28.046 7.191 57.951 7.191 85.997 0 1.318-.583 2.816-.793 4.342-.52 4.078.728 6.793 4.623 6.066 8.701l-.019.104c-.513 2.875-2.648 5.191-5.473 5.935-15.61 4.113-31.731 6.198-47.914 6.198z" fill="#f37c7c"/></g><g><path d="m256.19 417.555c-18.715 0-37.063-3.262-54.534-9.695-3.887-1.432-5.877-5.743-4.446-9.63s5.743-5.879 9.63-4.446c15.806 5.82 32.41 8.771 49.35 8.771s33.544-2.951 49.35-8.771c3.888-1.431 8.199.56 9.63 4.446 1.431 3.887-.56 8.198-4.446 9.63-17.471 6.433-35.819 9.695-54.534 9.695z" fill="#f37c7c"/></g><g><g><path d="m254.566 387.531c-.034 0-.067 0-.102 0-19.457-.259-38.103-4.779-55.419-13.433l-23.971 6.23c-4.009 1.048-8.106-1.351-9.154-5.358s1.351-8.106 5.358-9.154l23.95-6.264c3.5-.915 7.236-.514 10.522 1.127 15.278 7.636 31.735 11.624 48.913 11.852 4.142.055 7.455 3.458 7.4 7.599-.054 4.109-3.401 7.401-7.497 7.401z" fill="#f37c7c"/></g><g><path d="m282.31 384.694c-3.44 0-6.54-2.381-7.315-5.878-.896-4.044 1.655-8.049 5.699-8.946 9.067-2.01 17.854-5.133 26.118-9.282 3.038-1.524 6.514-1.989 9.788-1.311l17.176 3.562c4.056.841 6.662 4.811 5.821 8.866-.841 4.057-4.813 6.663-8.866 5.821l-17.177-3.562c-9.38 4.732-19.339 8.271-29.613 10.549-.547.123-1.093.181-1.631.181z" fill="#f37c7c"/></g></g><g><path d="m256.19 357.555c-21.098 0-41.223-6.619-58.2-19.142-2.777-2.048-6.259-2.794-9.556-2.042l-41.548 9.467c-4.036.92-8.059-1.608-8.979-5.646-.92-4.039 1.607-8.059 5.646-8.979l41.547-9.467c7.552-1.724 15.499-.047 21.792 4.595 14.38 10.607 31.426 16.213 49.296 16.213 18.257 0 35.601-5.829 50.156-16.856 5.672-4.297 12.924-5.755 19.893-4l37.944 9.554c4.017 1.011 6.453 5.087 5.442 9.104s-5.087 6.453-9.104 5.442l-37.944-9.554c-2.534-.639-5.147-.124-7.172 1.41-17.182 13.02-37.658 19.901-59.213 19.901z" fill="#ee6161"/></g><path d="m299.074 195.684h17.638c-2.823-5.404-6.375-10.462-10.626-15.021-2.826-3.029-7.571-3.194-10.601-.37s-3.195 7.571-.37 10.6c1.424 1.527 2.736 3.132 3.959 4.791z" fill="#bbec6c"/><path d="m309.437 227.165v32.144c0 29.36-23.886 53.246-53.247 53.246-8.6 0-16.829-2.011-24.458-5.977-3.677-1.911-8.204-.479-10.114 3.196s-.479 8.203 3.196 10.114c9.65 5.016 20.5 7.667 31.376 7.667 37.631 0 68.247-30.615 68.247-68.246v-32.144c0-11.482-2.888-22.612-8.281-32.515h-17.849c7.207 9.302 11.13 20.674 11.13 32.515z" fill="#f37c7c"/><path d="m280.624 163.457c-7.828-3.011-16.049-4.538-24.434-4.538-26.459 0-49.432 15.145-60.751 37.212h17.525c9.675-13.438 25.441-22.212 43.226-22.212 6.536 0 12.945 1.19 19.048 3.538 3.865 1.486 8.205-.441 9.693-4.307 1.487-3.867-.441-8.206-4.307-9.693z" fill="#bbec6c"/><path d="m214.068 194.65h-17.868c-5.263 9.672-8.256 20.751-8.256 32.515v32.144c0 14.762 4.659 28.825 13.474 40.669 1.472 1.978 3.733 3.022 6.022 3.022 1.557 0 3.127-.483 4.472-1.484 3.323-2.473 4.012-7.171 1.539-10.495-6.874-9.236-10.507-20.202-10.507-31.713v-32.144c0-12.235 4.159-23.512 11.124-32.514z" fill="#f37c7c"/><g><path d="m256.19 297.555c-19.139 0-35.438-14.298-37.914-33.259-.536-4.107 2.359-7.872 6.466-8.408 4.106-.534 7.872 2.359 8.408 6.466 1.503 11.516 11.408 20.201 23.04 20.201 12.818 0 23.247-10.428 23.247-23.246v-32.144c0-12.818-10.428-23.246-23.247-23.246s-23.247 10.428-23.247 23.246v8.799c0 4.142-3.358 7.5-7.5 7.5s-7.5-3.358-7.5-7.5v-8.799c0-21.089 17.157-38.246 38.247-38.246s38.247 17.157 38.247 38.246v32.144c0 21.089-17.157 38.246-38.247 38.246z" fill="#ee6161"/></g><g><path d="m256.19 270.825c-4.142 0-7.5-3.358-7.5-7.5v-42.042c0-4.142 3.358-7.5 7.5-7.5s7.5 3.358 7.5 7.5v42.042c0 4.142-3.357 7.5-7.5 7.5z" fill="#e94444"/></g><g><path d="m7.69 70.428c-4.142 0-7.5-3.358-7.5-7.5v-45.512c0-8.958 7.288-16.247 16.247-16.247h45.512c4.142 0 7.5 3.358 7.5 7.5s-3.358 7.5-7.5 7.5h-45.512c-.688 0-1.247.559-1.247 1.247v45.512c0 4.142-3.357 7.5-7.5 7.5z" fill="#8ac9fe"/></g><g><path d="m503.864 70.428c-4.142 0-7.5-3.358-7.5-7.5v-45.512c0-.688-.559-1.247-1.247-1.247h-45.512c-4.142 0-7.5-3.358-7.5-7.5s3.358-7.5 7.5-7.5h45.512c8.958 0 16.247 7.288 16.247 16.247v45.512c0 4.142-3.358 7.5-7.5 7.5z" fill="#8ac9fe"/></g><g><path d="m61.759 511.211h-45.512c-8.959 0-16.247-7.288-16.247-16.246v-45.512c0-4.142 3.358-7.5 7.5-7.5s7.5 3.358 7.5 7.5v45.512c0 .688.559 1.247 1.247 1.247h45.512c4.142 0 7.5 3.358 7.5 7.5s-3.358 7.499-7.5 7.499z" fill="#8ac9fe"/></g><g><path d="m496.134 511.211h-45.512c-4.142 0-7.5-3.358-7.5-7.5s3.358-7.5 7.5-7.5h45.512c.688 0 1.247-.559 1.247-1.247v-45.512c0-4.142 3.358-7.5 7.5-7.5s7.5 3.358 7.5 7.5v45.512c0 8.959-7.288 16.247-16.247 16.247z" fill="#8ac9fe"/></g><path d="m363.627 191.343h15.712c-15.54-53.337-64.863-92.424-123.149-92.424-13.234 0-26.303 2.025-38.844 6.02-3.947 1.257-6.127 5.476-4.87 9.423 1.258 3.946 5.474 6.126 9.423 4.87 11.067-3.525 22.604-5.313 34.292-5.313 49.93-.001 92.412 32.482 107.436 77.424z" fill="#d1f19e"/><g fill="#f37c7c"><path d="m369.437 227.165v32.144c0 4.142 3.358 7.5 7.5 7.5s7.5-3.358 7.5-7.5v-32.144c0-12.429-1.784-24.448-5.098-35.822h-15.712c3.765 11.263 5.81 23.308 5.81 35.822z"/><path d="m339.437 228.415v.209c0 4.142 3.358 7.5 7.5 7.5s7.5-3.358 7.5-7.5v-.209c0-12.122-2.138-23.896-6.225-34.91h-16.234c4.873 10.826 7.459 22.656 7.459 34.91z"/><path d="m163.102 195.684c-3.389 10.02-5.158 20.622-5.158 31.481v51.293c0 7.229-4.596 13.654-11.437 15.989l-13.486 4.604c-3.92 1.338-6.013 5.601-4.675 9.521 1.064 3.118 3.977 5.08 7.097 5.079.803 0 1.621-.13 2.423-.404l13.486-4.604c12.914-4.408 21.591-16.538 21.591-30.185v-51.293c0-10.956 2.12-21.608 6.163-31.481z"/></g><path d="m324.502 157.025c-18.913-18.581-43.799-28.552-70.077-28.091-25.835.458-50.075 10.89-68.254 29.374-9.166 9.319-16.256 20.148-21.039 31.908h16.477c3.876-7.788 8.982-15.01 15.256-21.39 15.408-15.666 35.944-24.506 57.826-24.894 22.239-.392 43.28 8.056 59.299 23.793 7.98 7.84 14.2 16.972 18.502 26.924h16.14c-5.01-14.03-13.17-26.857-24.13-37.624z" fill="#bbec6c"/><path d="m200.991 119.537c-2.121-3.557-6.724-4.723-10.283-2.601-18.759 11.184-34.478 27.07-45.456 45.942-5.327 9.157-9.456 18.931-12.353 29.062h15.753c8.473-25.615 25.973-47.952 49.737-62.12 3.558-2.121 4.723-6.725 2.602-10.283z" fill="#d1f19e"/><path d="m133.071 191.343c-3.374 11.587-5.127 23.65-5.127 35.822v32.144c0 4.142 3.358 7.5 7.5 7.5s7.5-3.358 7.5-7.5v-32.144c0-12.313 2.052-24.399 5.9-35.822z" fill="#f37c7c"/><g><path d="m502.881 203.184h-493.381c-4.142 0-7.5-3.358-7.5-7.5s3.358-7.5 7.5-7.5h493.381c4.142 0 7.5 3.358 7.5 7.5s-3.358 7.5-7.5 7.5z" fill="#b3dafe"/></g></g><g><path d="m7.69 220.091c-4.142 0-7.5-3.358-7.5-7.5v-33.813c0-4.142 3.358-7.5 7.5-7.5s7.5 3.358 7.5 7.5v33.813c0 4.142-3.357 7.5-7.5 7.5z" fill="#8ac9fe"/></g><g><path d="m504.69 220.537c-4.142 0-7.5-3.358-7.5-7.5v-33.813c0-4.142 3.358-7.5 7.5-7.5s7.5 3.358 7.5 7.5v33.813c0 4.142-3.357 7.5-7.5 7.5z" fill="#8ac9fe"/></g></g></svg>