<?xml version="1.0" encoding="iso-8859-1"?>
<!-- Generator: Adobe Illustrator 19.0.0, SVG Export Plug-In . SVG Version: 6.00 Build 0)  -->
<svg version="1.1" id="Capa_1" xmlns="http://www.w3.org/2000/svg" xmlns:xlink="http://www.w3.org/1999/xlink" x="0px" y="0px"
	 viewBox="0 0 512 512" style="enable-background:new 0 0 512 512;" xml:space="preserve">
<g>
	<g>
		<path d="M504,120H288V48c0-4.418-3.582-8-8-8h-48c-4.418,0-8,3.582-8,8v72H8c-4.418,0-8,3.582-8,8v336c0,4.418,3.582,8,8,8h496
			c4.418,0,8-3.582,8-8V128C512,123.582,508.418,120,504,120z M240,56h32v104h-32V56z M232,176h48c4.418,0,8-3.582,8-8h32
			c4.418,0,8,3.582,8,8s-3.582,8-8,8H192c-4.418,0-8-3.582-8-8s3.582-8,8-8h32C224,172.418,227.582,176,232,176z M496,456H16V136
			h208v16h-32c-13.255,0-24,10.745-24,24s10.745,24,24,24h128c13.255,0,24-10.745,24-24s-10.745-24-24-24h-32v-16h208V456z"/>
	</g>
</g>
<g>
	<g>
		<path d="M392,264H152c-4.418,0-8,3.582-8,8s3.582,8,8,8h240c4.418,0,8-3.582,8-8S396.418,264,392,264z"/>
	</g>
</g>
<g>
	<g>
		<path d="M392,320H120c-4.418,0-8,3.582-8,8s3.582,8,8,8h272c4.418,0,8-3.582,8-8S396.418,320,392,320z"/>
	</g>
</g>
<g>
	<g>
		<path d="M287.144,376H120c-4.418,0-8,3.582-8,8s3.582,8,8,8h167.144c4.418,0,8-3.582,8-8S291.562,376,287.144,376z"/>
	</g>
</g>
<g>
	<g>
		<path d="M360,376h-40.312c-4.418,0-8,3.582-8,8s3.582,8,8,8H360c4.418,0,8-3.582,8-8S364.418,376,360,376z"/>
	</g>
</g>
<g>
	<g>
		<path d="M56,152H40c-4.418,0-8,3.582-8,8v24c0,4.418,3.582,8,8,8s8-3.582,8-8v-16h8c4.418,0,8-3.582,8-8S60.418,152,56,152z"/>
	</g>
</g>
<g>
	<g>
		<path d="M96,152H80c-4.418,0-8,3.582-8,8s3.582,8,8,8h16c4.418,0,8-3.582,8-8S100.418,152,96,152z"/>
	</g>
</g>
<g>
</g>
<g>
</g>
<g>
</g>
<g>
</g>
<g>
</g>
<g>
</g>
<g>
</g>
<g>
</g>
<g>
</g>
<g>
</g>
<g>
</g>
<g>
</g>
<g>
</g>
<g>
</g>
<g>
</g>
</svg>
