<?xml version="1.0" encoding="iso-8859-1"?>
<!-- Generator: Adobe Illustrator 19.0.0, SVG Export Plug-In . SVG Version: 6.00 Build 0)  -->
<svg version="1.1" id="Capa_1" xmlns="http://www.w3.org/2000/svg" xmlns:xlink="http://www.w3.org/1999/xlink" x="0px" y="0px"
	 viewBox="0 0 480 480" style="enable-background:new 0 0 480 480;" xml:space="preserve">
<path style="fill:#CFDFE8;" d="M40,112h400c17.673,0,32,14.327,32,32v192c0,17.673-14.327,32-32,32H40c-17.673,0-32-14.327-32-32
	V144C8,126.327,22.327,112,40,112z"/>
<path style="fill:#5A6470;" d="M56,160h112v160H56V160z"/>
<path style="fill:#E9686A;" d="M200,160h272v48H200V160z"/>
<g>
	<path style="fill:#A7C6D3;" d="M88,192h48l0,0v40c0,13.255-10.745,24-24,24s-24-10.745-24-24V192L88,192z"/>
	<path style="fill:#A7C6D3;" d="M88,288h48v32H88V288z"/>
</g>
<circle style="fill:#E9686A;" cx="424" cy="320" r="16"/>
<g>
	<path style="fill:#5A6470;" d="M248,248h-48c-4.418,0-8-3.582-8-8s3.582-8,8-8h48c4.418,0,8,3.582,8,8S252.418,248,248,248z"/>
	<path style="fill:#5A6470;" d="M440,248H280c-4.418,0-8-3.582-8-8s3.582-8,8-8h160c4.418,0,8,3.582,8,8S444.418,248,440,248z"/>
	<path style="fill:#5A6470;" d="M248,280h-48c-4.418,0-8-3.582-8-8s3.582-8,8-8h48c4.418,0,8,3.582,8,8S252.418,280,248,280z"/>
	<path style="fill:#5A6470;" d="M440,280H280c-4.418,0-8-3.582-8-8s3.582-8,8-8h160c4.418,0,8,3.582,8,8S444.418,280,440,280z"/>
	<path style="fill:#5A6470;" d="M248,312h-48c-4.418,0-8-3.582-8-8s3.582-8,8-8h48c4.418,0,8,3.582,8,8S252.418,312,248,312z"/>
	<path style="fill:#5A6470;" d="M376,312h-96c-4.418,0-8-3.582-8-8s3.582-8,8-8h96c4.418,0,8,3.582,8,8S380.418,312,376,312z"/>
</g>
<path d="M440,104H40c-22.08,0.026-39.974,17.92-40,40v192c0.026,22.08,17.92,39.974,40,40h400c22.08-0.026,39.974-17.92,40-40V144
	C479.974,121.92,462.08,104.026,440,104z M440,360H40c-13.255,0-24-10.745-24-24V144c0-13.255,10.745-24,24-24h400
	c13.255,0,24,10.745,24,24v8H200c-4.418,0-8,3.582-8,8v48c0,4.418,3.582,8,8,8h264v120C464,349.255,453.255,360,440,360z M464,200
	H208v-32h256V200z"/>
<path d="M168,152H56c-4.418,0-8,3.582-8,8v160c0,4.418,3.582,8,8,8h112c4.418,0,8-3.582,8-8V160C176,155.582,172.418,152,168,152z
	 M96,312v-16h32v16H96z M160,312h-16v-24c0-4.418-3.582-8-8-8H88c-4.418,0-8,3.582-8,8v24H64V168h96V312z"/>
<path d="M112,264c17.673,0,32-14.327,32-32v-40c0-4.418-3.582-8-8-8H88c-4.418,0-8,3.582-8,8v40C80,249.673,94.327,264,112,264z
	 M96,200h32v32c0,8.837-7.163,16-16,16s-16-7.163-16-16V200z"/>
<path d="M424,296c-13.255,0-24,10.745-24,24s10.745,24,24,24s24-10.745,24-24S437.255,296,424,296z M424,328c-4.418,0-8-3.582-8-8
	s3.582-8,8-8s8,3.582,8,8S428.418,328,424,328z"/>
<path d="M248,232h-48c-4.418,0-8,3.582-8,8s3.582,8,8,8h48c4.418,0,8-3.582,8-8S252.418,232,248,232z"/>
<path d="M440,232H280c-4.418,0-8,3.582-8,8s3.582,8,8,8h160c4.418,0,8-3.582,8-8S444.418,232,440,232z"/>
<path d="M248,264h-48c-4.418,0-8,3.582-8,8s3.582,8,8,8h48c4.418,0,8-3.582,8-8S252.418,264,248,264z"/>
<path d="M440,264H280c-4.418,0-8,3.582-8,8s3.582,8,8,8h160c4.418,0,8-3.582,8-8S444.418,264,440,264z"/>
<path d="M248,296h-48c-4.418,0-8,3.582-8,8s3.582,8,8,8h48c4.418,0,8-3.582,8-8S252.418,296,248,296z"/>
<path d="M376,296h-96c-4.418,0-8,3.582-8,8s3.582,8,8,8h96c4.418,0,8-3.582,8-8S380.418,296,376,296z"/>
<g>
</g>
<g>
</g>
<g>
</g>
<g>
</g>
<g>
</g>
<g>
</g>
<g>
</g>
<g>
</g>
<g>
</g>
<g>
</g>
<g>
</g>
<g>
</g>
<g>
</g>
<g>
</g>
<g>
</g>
</svg>
