<?xml version="1.0"?>
<svg xmlns="http://www.w3.org/2000/svg" height="512px" viewBox="0 -30 512 512" width="512px" class=""><g><path d="m482.296875 452.015625h-452.59375c-16.40625 0-29.703125-13.296875-29.703125-29.703125v-252.921875c0-16.402344 13.296875-29.703125 29.703125-29.703125h452.59375c16.402344 0 29.703125 13.300781 29.703125 29.703125v252.921875c0 16.40625-13.296875 29.703125-29.703125 29.703125zm0 0" fill="#fdb659" data-original="#FDB659" class="" style="fill:#099E96" data-old_color="#fdb659"/><path d="m512 169.390625v252.917969c0 16.414062-13.300781 29.710937-29.699219 29.710937h-23.828125c16.398438 0 29.699219-13.296875 29.699219-29.710937v-252.917969c0-16.402344-13.300781-29.699219-29.699219-29.699219h23.828125c16.398438 0 29.699219 13.296875 29.699219 29.699219zm0 0" fill="#fd9e28" data-original="#FD9E28" class="" style="fill:#06C3B9" data-old_color="#fd9e28"/><path d="m0 185.65625h512v76.574219h-512zm0 0" fill="#fd8724" data-original="#FD8724" class="" style="fill:#06C3B9" data-old_color="#fd8724"/><path d="m488.171875 185.65625h23.828125v76.574219h-23.828125zm0 0" fill="#fc5820" data-original="#FC5820" class="" style="fill:#39DDC1" data-old_color="#fc5820"/><path d="m405.402344 149.402344c0 82.511718-66.890625 149.402344-149.402344 149.402344s-149.402344-66.890626-149.402344-149.402344c0-82.511719 66.890625-149.402344 149.402344-149.402344s149.402344 66.890625 149.402344 149.402344zm0 0" fill="#48ffe0" data-original="#48FFE0" class="" data-old_color="#48ffe0" style="fill:#FFFFFF"/><g fill="#fd6069"><path d="m187.328125 237.953125c-2.390625 0-4.746094-1.105469-6.257813-3.1875-2.503906-3.453125-1.738281-8.28125 1.710938-10.789063.425781-.308593 42.851562-31.53125 64.542969-76.839843 1.839843-3.851563 6.453125-5.476563 10.304687-3.632813 3.847656 1.839844 5.476563 6.457032 3.632813 10.304688-23.421875 48.933594-67.53125 81.316406-69.398438 82.671875-1.371093.996093-2.960937 1.472656-4.535156 1.472656zm0 0" data-original="#FD6069" class="active-path" style="fill:#39DDC1" data-old_color="#FD6069"/><path d="m355.765625 206.78125c-1.121094 0-2.253906-.242188-3.332031-.757812-3.847656-1.84375-5.472656-6.457032-3.632813-10.304688 12.085938-25.246094 13.617188-53.6875 4.3125-80.082031-9.304687-26.398438-28.328125-47.59375-53.566406-59.671875-14.042969-6.722656-29.691406-10.277344-45.25-10.277344-40.109375 0-77.207031 23.371094-94.515625 59.539062-1.839844 3.851563-6.453125 5.480469-10.300781 3.636719-3.851563-1.84375-5.476563-6.457031-3.636719-10.304687 19.859375-41.503906 62.429688-68.324219 108.453125-68.324219 17.855469 0 35.808594 4.078125 51.921875 11.792969 28.960938 13.859375 50.789062 38.175781 61.46875 68.472656 10.679688 30.285156 8.921875 62.921875-4.949219 91.890625-1.328125 2.769531-4.089843 4.390625-6.972656 4.390625zm0 0" data-original="#FD6069" class="active-path" style="fill:#39DDC1" data-old_color="#FD6069"/><path d="m292.367188 262.457031c-1.796876 0-3.597657-.625-5.0625-1.894531-3.21875-2.796875-3.566407-7.675781-.765626-10.898438 17.71875-20.402343 31.972657-41.761718 42.367188-63.472656 9.539062-19.933594 10.75-42.386718 3.40625-63.222656-7.355469-20.835938-22.375-37.566406-42.296875-47.105469-11.074219-5.308593-23.421875-8.109375-35.71875-8.109375-31.664063 0-60.949219 18.445313-74.613281 47-7.363282 15.371094-19.9375 29.199219-29.1875 38.09375-3.078125 2.957032-7.96875 2.863282-10.925782-.214844-2.957031-3.074218-2.859374-7.96875.214844-10.925781 8.332032-8.007812 19.597656-20.34375 25.960938-33.628906 16.214844-33.882813 50.972656-55.777344 88.546875-55.777344 14.597656 0 29.257812 3.328125 42.394531 9.625 23.640625 11.316407 41.46875 31.171875 50.195312 55.902344 8.714844 24.730469 7.28125 51.378906-4.039062 75.035156-10.992188 22.960938-26.011719 45.480469-44.640625 66.933594-1.527344 1.757813-3.675781 2.660156-5.835937 2.660156zm0 0" data-original="#FD6069" class="active-path" style="fill:#39DDC1" data-old_color="#FD6069"/><path d="m256.316406 268.570312c-2.015625 0-4.03125-.785156-5.546875-2.34375-2.96875-3.0625-2.898437-7.953124.164063-10.925781 17.410156-16.898437 41.617187-44.261719 58.074218-78.640625 6.996094-14.609375 7.878907-31.074218 2.496094-46.359375-5.386718-15.28125-16.398437-27.546875-31.011718-34.539062-8.136719-3.894531-17.195313-5.949219-26.199219-5.949219-23.214844 0-44.695313 13.527344-54.71875 34.46875-13.347657 27.882812-39.304688 49.988281-46.941407 56.101562-3.332031 2.667969-8.195312 2.128907-10.859374-1.207031-2.667969-3.328125-2.128907-8.191406 1.203124-10.859375 4.976563-3.980468 30.417969-25.140625 42.660157-50.707031 12.578125-26.273437 39.527343-43.25 68.65625-43.25 11.296875 0 22.660156 2.578125 32.871093 7.460937 18.335938 8.777344 32.15625 24.167969 38.914063 43.34375 6.757813 19.183594 5.644531 39.839844-3.132813 58.171876-17.441406 36.4375-42.933593 65.277343-61.25 83.054687-1.5 1.457031-3.4375 2.179687-5.378906 2.179687zm0 0" data-original="#FD6069" class="active-path" style="fill:#39DDC1" data-old_color="#FD6069"/><path d="m227.683594 264.925781c-2.171875 0-4.335938-.910156-5.863282-2.691406-2.78125-3.234375-2.410156-8.113281.824219-10.894531 16.597657-14.257813 47.300781-44.160156 66.464844-84.199219 4.453125-9.292969 5.015625-19.773437 1.585937-29.507813-3.425781-9.71875-10.433593-17.519531-19.730468-21.972656-5.179688-2.476562-10.941406-3.789062-16.671875-3.789062-14.769531 0-28.4375 8.613281-34.820313 21.9375-17.695312 36.96875-53.335937 64.058594-54.84375 65.195312-1.476562 1.082032-2.757812 2.152344-3.890625 3.234375-3.082031 2.953125-7.972656 2.847657-10.925781-.234375-2.949219-3.085937-2.84375-7.976562.238281-10.925781 1.617188-1.550781 3.421875-3.054687 5.363281-4.480469.261719-.199218 34.039063-25.863281 50.121094-59.464844 8.9375-18.660156 28.078125-30.710937 48.761719-30.710937 8.023437 0 16.09375 1.832031 23.339844 5.300781 13.019531 6.230469 22.835937 17.164063 27.632812 30.773438 4.800781 13.628906 4.011719 28.304687-2.222656 41.320312-20.382813 42.585938-52.8125 74.195313-70.328125 89.246094-1.460938 1.25-3.25 1.863281-5.035156 1.863281zm0 0" data-original="#FD6069" class="active-path" style="fill:#39DDC1" data-old_color="#FD6069"/><path d="m204.089844 255.695312c-2.308594 0-4.59375-1.03125-6.117188-3-2.609375-3.375-1.988281-8.226562 1.386719-10.835937 10.996094-8.507813 48.535156-39.722656 69.851563-84.25 1.90625-3.980469 2.144531-8.46875.679687-12.632813-1.46875-4.167968-4.46875-7.511718-8.453125-9.417968-2.21875-1.066406-4.683594-1.625-7.144531-1.625-6.328125 0-12.1875 3.6875-14.925781 9.394531-19.714844 41.203125-57.40625 70.25-61.640626 73.429687-.035156.023438-.085937.0625-.121093.085938-1.558594 1.132812-2.882813 2.492188-3.941407 4.035156-2.410156 3.519532-7.222656 4.417969-10.742187 2.007813-3.519531-2.410157-4.417969-7.21875-2.007813-10.738281 2.046876-2.992188 4.589844-5.601563 7.558594-7.769532 2.425782-1.828125 38.738282-29.648437 56.960938-67.722656 5.292968-11.042969 16.621094-18.175781 28.859375-18.175781 4.765625 0 9.546875 1.089843 13.824219 3.148437 7.695312 3.675782 13.507812 10.148438 16.347656 18.214844 2.839844 8.050781 2.371094 16.734375-1.316406 24.441406-22.789063 47.597656-62.660157 80.765625-74.335938 89.796875-1.40625 1.085938-3.070312 1.613281-4.722656 1.613281zm0 0" data-original="#FD6069" class="active-path" style="fill:#39DDC1" data-old_color="#FD6069"/></g><path d="m116.289062 406.640625h-65.542968c-5.6875 0-10.300782-4.613281-10.300782-10.300781v-38.113282c0-5.691406 4.613282-10.304687 10.300782-10.304687h65.542968c5.691407 0 10.300782 4.613281 10.300782 10.304687v38.113282c0 5.6875-4.613282 10.300781-10.300782 10.300781zm0 0" fill="#fede93" data-original="#FEDE93" class="" style="fill:#39DDC1" data-old_color="#fede93"/><path d="m463.828125 361.867188h-40.175781c-4.265625 0-7.726563-3.457032-7.726563-7.722657 0-4.269531 3.460938-7.726562 7.726563-7.726562h40.175781c4.265625 0 7.726563 3.457031 7.726563 7.726562 0 4.265625-3.457032 7.722657-7.726563 7.722657zm0 0" fill="#fd8724" data-original="#FD8724" class="" style="fill:#06C3B9" data-old_color="#fd8724"/><path d="m463.828125 394.28125h-122.070313c-4.265624 0-7.726562-3.460938-7.726562-7.726562 0-4.269532 3.460938-7.726563 7.726562-7.726563h122.070313c4.265625 0 7.726563 3.457031 7.726563 7.726563 0 4.265624-3.457032 7.726562-7.726563 7.726562zm0 0" fill="#fd8724" data-original="#FD8724" class="" style="fill:#06C3B9" data-old_color="#fd8724"/><path d="m463.828125 414.367188h-122.070313c-4.265624 0-7.726562-3.460938-7.726562-7.726563 0-4.269531 3.460938-7.726563 7.726562-7.726563h122.070313c4.265625 0 7.726563 3.460938 7.726563 7.726563s-3.457032 7.726563-7.726563 7.726563zm0 0" fill="#fd8724" data-original="#FD8724" class="" style="fill:#06C3B9" data-old_color="#fd8724"/><path d="m64.386719 324.78125h-16.214844c-4.265625 0-7.726563-3.457031-7.726563-7.722656 0-4.269532 3.460938-7.726563 7.726563-7.726563h16.214844c4.265625 0 7.726562 3.457031 7.726562 7.726563 0 4.265625-3.460937 7.722656-7.726562 7.722656zm0 0" fill="#fede93" data-original="#FEDE93" class="" style="fill:#39DDC1" data-old_color="#fede93"/><path d="m64.386719 303.578125h-16.214844c-4.265625 0-7.726563-3.460937-7.726563-7.726563 0-4.265624 3.460938-7.726562 7.726563-7.726562h16.214844c4.265625 0 7.726562 3.460938 7.726562 7.726562 0 4.265626-3.460937 7.726563-7.726562 7.726563zm0 0" fill="#fede93" data-original="#FEDE93" class="" style="fill:#39DDC1" data-old_color="#fede93"/></g> </svg>
