<?xml version="1.0"?>
<svg xmlns="http://www.w3.org/2000/svg" xmlns:xlink="http://www.w3.org/1999/xlink" xmlns:svgjs="http://svgjs.com/svgjs" version="1.1" width="512" height="512" x="0" y="0" viewBox="0 0 512 512" style="enable-background:new 0 0 512 512" xml:space="preserve" class=""><g><g xmlns="http://www.w3.org/2000/svg"><path d="m388.129 413h-355.129c-13.682 0-24.774-11.092-24.774-24.774v-280.871c0-13.682 11.092-24.774 24.774-24.774h355.129c13.682 0 24.774 11.092 24.774 24.774v280.871c0 13.682-11.092 24.774-24.774 24.774z" fill="#b9e9e7" data-original="#eceaec" style="" class=""/><path d="m355.097 355.097h-206.452c-4.565 0-8.258-3.698-8.258-8.258s3.694-8.258 8.258-8.258h206.452c4.565 0 8.258 3.698 8.258 8.258s-3.694 8.258-8.258 8.258z" fill="#ffffff" data-original="#ffffff" style="" class=""/><path d="m355.097 272.516h-206.452c-4.565 0-8.258-3.698-8.258-8.258s3.694-8.258 8.258-8.258h206.452c4.565 0 8.258 3.698 8.258 8.258s-3.694 8.258-8.258 8.258z" fill="#ffffff" data-original="#ffffff" style="" class=""/><path d="m388.129 41.291h-363.355c-2.895 0-5.674.497-8.256 1.409l-8.851 56.3 405.237-8.161v-24.774c-.001-13.683-11.092-24.774-24.775-24.774z" fill="#62c5c0" data-original="#b3e59f" style="" class=""/><path d="m24.774 404.645c-4.561 0-8.258-3.697-8.258-8.258v-289.032h-16.516v289.032c0 13.682 11.092 24.774 24.774 24.774h363.355c10.771 0 19.844-6.916 23.257-16.516z" fill="#dad8db" data-original="#dad8db" style="" class=""/><path d="m512 388.129c0 28.779-10.515 55.102-27.914 75.337-21.202 24.659-52.627 36.534-87.699 36.534-63.851 0-109.387-48.02-109.387-111.871 0-35.078 9.397-66.508 34.064-87.711 20.233-17.391 46.551-27.902 75.324-27.902 63.85 0 115.612 51.762 115.612 115.613z" fill="#62c5c0" data-original="#b3e59f" style="" class=""/><path d="m379.871 442.508c-4.226 0-8.46-1.609-11.677-4.831l-35.452-35.452c-3.226-3.226-3.226-8.452 0-11.677s8.452-3.226 11.677 0l29.612 29.612c3.225 3.225 8.454 3.225 11.679 0l62.645-62.645c3.226-3.226 8.452-3.226 11.677 0s3.226 8.452 0 11.677l-68.484 68.484c-3.217 3.223-7.451 4.832-11.677 4.832z" fill="#ffffff" data-original="#ffffff" style="" class=""/><circle cx="82.581" cy="181.677" fill="#62c5c0" r="24.774" data-original="#b3e59f" style="" class=""/><path d="m355.097 189.936h-206.452c-4.565 0-8.258-3.698-8.258-8.258s3.694-8.258 8.258-8.258h206.452c4.565 0 8.258 3.698 8.258 8.258s-3.694 8.258-8.258 8.258z" fill="#ffffff" data-original="#ffffff" style="" class=""/><circle cx="82.581" cy="264.258" fill="#62c5c0" r="24.774" data-original="#b3e59f" style="" class=""/><circle cx="82.581" cy="346.839" fill="#62c5c0" r="24.774" data-original="#b3e59f" style="" class=""/><path d="m16.516 74.323v-31.629c-9.584 3.415-16.516 12.613-16.516 23.371v41.29h412.903v-16.516h-379.871c-9.121 0-16.516-7.395-16.516-16.516z" fill="#5bb1ad" data-original="#95d6a4" style="" class=""/><path d="m57.806 57.806c-9.122 0-16.516-7.395-16.516-16.516v-16.516c0-9.122 7.395-16.516 16.516-16.516 9.122 0 16.516 7.395 16.516 16.516v16.516c.001 9.122-7.394 16.516-16.516 16.516z" fill="#c8c5c9" data-original="#c8c5c9" style=""/><path d="m57.806 74.323c-9.122 0-16.516-7.395-16.516-16.516v-16.517h33.032v16.516c.001 9.122-7.394 16.517-16.516 16.517z" fill="#b6b1b7" data-original="#b6b1b7" style=""/><path d="m355.097 57.806c-9.122 0-16.516-7.395-16.516-16.516v-16.516c0-9.122 7.395-16.516 16.516-16.516 9.122 0 16.516 7.395 16.516 16.516v16.516c0 9.122-7.395 16.516-16.516 16.516z" fill="#c8c5c9" data-original="#c8c5c9" style=""/><path d="m355.097 74.323c-9.122 0-16.516-7.395-16.516-16.516v-16.517h33.032v16.516c0 9.122-7.395 16.517-16.516 16.517z" fill="#b6b1b7" data-original="#b6b1b7" style=""/><g fill="#95d6a4"><path d="m408.774 491.355c-63.851 0-115.613-51.762-115.613-115.613 0-28.772 10.513-55.09 27.903-75.322-24.668 21.203-40.291 52.63-40.291 87.709 0 63.851 51.762 115.613 115.613 115.613 35.08 0 66.497-15.608 87.699-40.276-20.231 17.39-46.539 27.889-75.311 27.889z" fill="#5bb1ad" data-original="#95d6a4" style="" class=""/><circle cx="82.581" cy="181.677" r="8.258" fill="#5bb1ad" data-original="#95d6a4" style="" class=""/><circle cx="82.581" cy="346.839" r="8.258" fill="#5bb1ad" data-original="#95d6a4" style="" class=""/><circle cx="82.581" cy="264.258" r="8.258" fill="#5bb1ad" data-original="#95d6a4" style="" class=""/></g></g></g></svg>
