<?xml version="1.0"?>
<svg xmlns="http://www.w3.org/2000/svg" xmlns:xlink="http://www.w3.org/1999/xlink" xmlns:svgjs="http://svgjs.com/svgjs" version="1.1" width="512" height="512" x="0" y="0" viewBox="0 0 512 512" style="enable-background:new 0 0 512 512" xml:space="preserve" class=""><g>
<path xmlns="http://www.w3.org/2000/svg" style="" d="M51.133,512h371.841c20.927,0,37.893-16.966,37.893-37.893V37.893  C460.867,16.965,443.901,0,422.974,0H51.133V512z" fill="#84ceca" data-original="#64dde0" class=""/>
<path xmlns="http://www.w3.org/2000/svg" style="" d="M256,512h166.974c20.927,0,37.893-16.966,37.893-37.893V37.893C460.867,16.965,443.901,0,422.974,0  H256V512z" fill="#3eb9b3" data-original="#00c2c7" class=""/>
<circle xmlns="http://www.w3.org/2000/svg" style="" cx="256" cy="181.89" r="114.98" fill="#f1f3a4" data-original="#ebebec" class=""/>
<g xmlns="http://www.w3.org/2000/svg">
	<path style="" d="M313.487,181.889C313.487,96.865,256,66.906,256,66.906V181.89L313.487,181.889L313.487,181.889z" fill="#8de3d7" data-original="#cacacd" class=""/>
	<path style="" d="M256,66.906c-63.502,0-114.983,51.483-114.983,114.984h57.496C198.513,96.865,256,66.906,256,66.906   z" fill="#8de3d7" data-original="#cacacd" class=""/>
	<path style="" d="M313.487,181.889c0,85.027-57.487,114.984-57.487,114.984c63.502,0,114.983-51.483,114.983-114.984   H313.487z" fill="#8de3d7" data-original="#cacacd" class=""/>
	<path style="" d="M198.513,181.889c0,85.027,57.487,114.984,57.487,114.984V181.889H198.513z" fill="#8de3d7" data-original="#cacacd" class=""/>
</g>
<g xmlns="http://www.w3.org/2000/svg">
	<path style="" d="M128.852,451.079v-77.061h33.212c15.086,0,25.94,13.567,25.94,26.7   c0,13.675-10.202,26.7-25.397,26.7h-12.59v23.661L128.852,451.079L128.852,451.079z M150.017,408.967h11.179   c2.605,0,5.318-2.062,5.318-8.249c0-6.404-3.256-8.249-5.861-8.249h-10.637v16.498H150.017z" fill="#ffffff" data-original="#ffffff" class=""/>
	<path style="" d="M182.686,451.079l28.762-77.061h17.149l28.653,77.061h-22.358l-4.667-15.086h-20.513l-4.559,15.086   H182.686z M220.022,396.051l-7.164,25.832h14.001L220.022,396.051z" fill="#ffffff" data-original="#ffffff" class=""/>
	<path style="" d="M309.13,399.199c0,0-11.179-7.055-20.405-7.055c-3.69,0-6.187,1.085-6.187,3.799   c0,4.016,5.427,4.884,14.327,7.706c14.218,4.45,23.227,9.443,23.227,23.878c0,18.56-14.978,24.529-29.304,24.529   c-11.179,0-24.312-3.582-33.538-9.009l9.117-18.56c0,0,12.916,8.466,24.746,8.466c4.559,0,6.187-1.302,6.187-3.365   c0-4.45-7.923-5.427-17.148-8.574c-13.567-4.559-19.537-10.311-19.537-21.599c0-17.04,13.567-26.048,28.762-26.048   c11.179,0,21.924,4.884,28.871,8.357L309.13,399.199z" fill="#ffffff" data-original="#ffffff" class=""/>
	<path style="" d="M376.095,399.199c0,0-11.179-7.055-20.405-7.055c-3.69,0-6.187,1.085-6.187,3.799   c0,4.016,5.427,4.884,14.327,7.706c14.218,4.45,23.227,9.443,23.227,23.878c0,18.56-14.978,24.529-29.304,24.529   c-11.179,0-24.312-3.582-33.538-9.009l9.117-18.56c0,0,12.916,8.466,24.746,8.466c4.559,0,6.187-1.302,6.187-3.365   c0-4.45-7.923-5.427-17.148-8.574c-13.567-4.559-19.537-10.311-19.537-21.599c0-17.04,13.567-26.048,28.762-26.048   c11.179,0,21.924,4.884,28.871,8.357L376.095,399.199z" fill="#ffffff" data-original="#ffffff" class=""/>
</g>
<g xmlns="http://www.w3.org/2000/svg">
</g>
<g xmlns="http://www.w3.org/2000/svg">
</g>
<g xmlns="http://www.w3.org/2000/svg">
</g>
<g xmlns="http://www.w3.org/2000/svg">
</g>
<g xmlns="http://www.w3.org/2000/svg">
</g>
<g xmlns="http://www.w3.org/2000/svg">
</g>
<g xmlns="http://www.w3.org/2000/svg">
</g>
<g xmlns="http://www.w3.org/2000/svg">
</g>
<g xmlns="http://www.w3.org/2000/svg">
</g>
<g xmlns="http://www.w3.org/2000/svg">
</g>
<g xmlns="http://www.w3.org/2000/svg">
</g>
<g xmlns="http://www.w3.org/2000/svg">
</g>
<g xmlns="http://www.w3.org/2000/svg">
</g>
<g xmlns="http://www.w3.org/2000/svg">
</g>
<g xmlns="http://www.w3.org/2000/svg">
</g>
</g></svg>
