<svg height="512" viewBox="0 0 64 64" width="512" xmlns="http://www.w3.org/2000/svg"><g id="line"><path d="m62 32h-3.87a20.454 20.454 0 0 0 -1.663-3.983l2.75-2.75a1 1 0 0 0 0-1.414l-7.07-7.07a1 1 0 0 0 -1.414 0l-2.75 2.75a20.458 20.458 0 0 0 -3.983-1.664v-3.869a1 1 0 0 0 -1-1h-10a1 1 0 0 0 -1 1v3.869a20.458 20.458 0 0 0 -3.983 1.664l-2.75-2.75a1 1 0 0 0 -1.414 0l-7.07 7.07a1 1 0 0 0 0 1.414l2.75 2.75a20.428 20.428 0 0 0 -1.663 3.983h-3.87a1 1 0 0 0 -1 1v10a1 1 0 0 0 1 1h3.87a20.428 20.428 0 0 0 1.663 3.983l-2.75 2.75a1 1 0 0 0 0 1.414l7.07 7.07a1 1 0 0 0 1.414 0l2.75-2.75a20.458 20.458 0 0 0 3.983 1.664v3.869a1 1 0 0 0 1 1h10a1 1 0 0 0 1-1v-3.869a20.458 20.458 0 0 0 3.983-1.664l2.75 2.75a1 1 0 0 0 1.414 0l7.07-7.07a1 1 0 0 0 0-1.414l-2.75-2.75a20.454 20.454 0 0 0 1.663-3.983h3.87a1 1 0 0 0 1-1v-10a1 1 0 0 0 -1-1zm-24 17a11 11 0 1 1 11-11 11.013 11.013 0 0 1 -11 11z" fill="#c4a2fc"/><circle cx="38" cy="38" fill="#c4a2fc" r="9"/><g fill="#151a6a"><path d="m2 19a1 1 0 0 0 1-1v-6a1 1 0 0 1 1-1h6a1 1 0 0 0 0-2h-6a3 3 0 0 0 -3 3v6a1 1 0 0 0 1 1z"/><path d="m10 49h-6a1 1 0 0 1 -1-1v-6a1 1 0 0 0 -2 0v6a3 3 0 0 0 3 3h6a1 1 0 0 0 0-2z"/><path d="m50 41a1 1 0 0 0 -1 1v6a1 1 0 0 1 -1 1h-6a1 1 0 0 0 0 2h6a3 3 0 0 0 3-3v-6a1 1 0 0 0 -1-1z"/><path d="m48 9h-6a1 1 0 0 0 0 2h6a1 1 0 0 1 1 1v6a1 1 0 0 0 2 0v-6a3 3 0 0 0 -3-3z"/><path d="m11 15a1 1 0 0 0 -1 1v18a1 1 0 0 0 2 0v-18a1 1 0 0 0 -1-1z"/><path d="m11 37a1 1 0 0 0 -1 1v6a1 1 0 0 0 2 0v-6a1 1 0 0 0 -1-1z"/><path d="m29 15a1 1 0 0 0 -1 1v18a1 1 0 0 0 2 0v-18a1 1 0 0 0 -1-1z"/><path d="m29 37a1 1 0 0 0 -1 1v6a1 1 0 0 0 2 0v-6a1 1 0 0 0 -1-1z"/><path d="m17 15a1 1 0 0 0 -1 1v28a1 1 0 0 0 2 0v-28a1 1 0 0 0 -1-1z"/><path d="m35 15a1 1 0 0 0 -1 1v28a1 1 0 0 0 2 0v-28a1 1 0 0 0 -1-1z"/><path d="m23 15a1 1 0 0 0 -1 1v6a1 1 0 0 0 2 0v-6a1 1 0 0 0 -1-1z"/><path d="m23 25a1 1 0 0 0 -1 1v18a1 1 0 0 0 2 0v-18a1 1 0 0 0 -1-1z"/><path d="m41 29a1 1 0 0 0 1-1v-12a1 1 0 0 0 -2 0v12a1 1 0 0 0 1 1z"/><path d="m42 44v-12a1 1 0 0 0 -2 0v12a1 1 0 0 0 2 0z"/></g></g></svg>