<?xml version="1.0"?>
<svg xmlns="http://www.w3.org/2000/svg" id="Capa_1" enable-background="new 0 0 512 512" height="512px" viewBox="0 0 512 512" width="512px" class=""><g><g><g><g><g><path d="m243.104 337.127-25.417 109.74h63.73l-25.417-109.74z" fill="#d8e2f1" data-original="#D8E2F1" class="" style="fill:#08BBB2" data-old_color="#d8e2f1"/><path d="m313.394 337.127h-65.003l25.418 109.74h65.002z" fill="#b9cbea" data-original="#B9CBEA" class="active-path" style="fill:#099E96" data-old_color="#b9cbea"/><path d="m456.354 81.461c0-17.632-14.294-31.926-31.926-31.926h-348.004c-17.632 0-31.926 14.294-31.926 31.926v236.016l21.129 12.446h390.727z" fill="#cbe2ff" data-original="#CBE2FF" class="" style="fill:#08BBB2" data-old_color="#cbe2ff"/><path d="m446.724 81.461v248.462h31.526l33.75-12.446v-236.016c0-17.632-14.294-31.926-31.926-31.926h-65.276c17.633 0 31.926 14.294 31.926 31.926z" fill="#bed8fb" data-original="#BED8FB" class="" style="fill:#099E96" data-old_color="#bed8fb"/><path d="m456.354 338.438v-20.961h-411.856v20.961c0 17.632 14.294 31.926 31.926 31.926h348.004c17.633 0 31.926-14.293 31.926-31.926z" fill="#f4fbff" data-original="#F4FBFF" class="" data-old_color="#f4fbff" style="fill:#EFEDED"/><path d="m512 338.438v-20.961h-65.276v20.961c0 17.632-14.294 31.926-31.926 31.926h65.276c17.632 0 31.926-14.293 31.926-31.926z" fill="#e4f6ff" data-original="#E4F6FF" class="" data-old_color="#e4f6ff" style="fill:#C5C5C5"/><path d="m302.112 431.772h-99.732c-23.867 0-43.216 19.348-43.216 43.215 0 5.411 4.386 9.797 9.797 9.797h168.757l7.609-9.797c0-23.867-19.348-43.215-43.215-43.215z" fill="#f4fbff" data-original="#F4FBFF" class="" data-old_color="#f4fbff" style="fill:#EFEDED"/><path d="m354.118 431.772h-59.615c23.867 0 43.215 19.348 43.215 43.215v9.797h49.818c5.411 0 9.797-4.386 9.797-9.797.001-23.867-19.348-43.215-43.215-43.215z" fill="#e4f6ff" data-original="#E4F6FF" class="" data-old_color="#e4f6ff" style="fill:#C5C5C5"/></g><g><g><g><path d="m463.219 133.315h-161.577c-4.274 0-7.738-3.465-7.738-7.738s3.464-7.738 7.738-7.738h161.576c4.274 0 7.738 3.465 7.738 7.738s-3.463 7.738-7.737 7.738z" fill="#f4fbff" data-original="#F4FBFF" class="" data-old_color="#f4fbff" style="fill:#EFEDED"/></g><g><path d="m463.219 182.587h-161.577c-4.274 0-7.738-3.465-7.738-7.738s3.464-7.738 7.738-7.738h161.576c4.274 0 7.738 3.465 7.738 7.738s-3.463 7.738-7.737 7.738z" fill="#f4fbff" data-original="#F4FBFF" class="" data-old_color="#f4fbff" style="fill:#EFEDED"/></g><g><path d="m373.252 231.859h-71.609c-4.274 0-7.738-3.465-7.738-7.738 0-4.274 3.464-7.738 7.738-7.738h71.609c4.274 0 7.738 3.465 7.738 7.738s-3.464 7.738-7.738 7.738z" fill="#f4fbff" data-original="#F4FBFF" class="" data-old_color="#f4fbff" style="fill:#EFEDED"/></g></g></g></g></g><g><g><g><g><path d="m214.851 225.473h30.32v63.509h-30.32z" fill="#4a80aa" transform="matrix(.707 -.707 .707 .707 -114.518 237.982)" data-original="#4A80AA" class="" data-old_color="#4a80aa" style="fill:#898B8C"/><path d="m335.89 328.149-64.193-64.193c-3.678-3.678-9.642-3.678-13.321 0l-21.636 21.636c-3.678 3.678-3.678 9.642 0 13.321l64.193 64.193c9.653 9.653 25.303 9.653 34.956 0 9.654-9.653 9.654-25.304.001-34.957z" fill="#cc9675" data-original="#CC9675" class="" style="fill:#CC9675" data-old_color="#cc9675"/><circle cx="129.925" cy="157.141" fill="#b9cbea" r="129.925" data-original="#B9CBEA" class="active-path" style="fill:#099E96" data-old_color="#b9cbea"/><circle cx="129.925" cy="157.141" fill="#f4fbff" r="101.769" data-original="#F4FBFF" class="" data-old_color="#f4fbff" style="fill:#EFEDED"/></g><g><g><g><g><g><g><g><path d="m151.709 204.62c-2.56-.321-4.485-2.49-4.496-5.07l-.099-23.472-35.863.151.099 23.472c.011 2.58-1.896 4.765-4.453 5.108 0 0-6.622 22.633 22.501 22.51 29.124-.123 22.311-22.699 22.311-22.699z" fill="#ffcbbe" data-original="#FFCBBE" class=""/><path d="m183.075 211.484c-8.217-3.617-23.729-5.905-31.366-6.864l-.046.057c-11.456 14.33-33.226 14.394-44.766.132-7.628 1.023-23.121 3.442-31.307 7.128-8.508 3.834-13.406 12.209-13.584 20.997 38.387 34.459 96.658 34.634 135.247.525.153-9.729-5.251-18.045-14.178-21.975z" fill="#407093" data-original="#407093" class="" style="fill:#CD5454" data-old_color="#407093"/></g></g></g></g></g></g><g><g><path d="m157.171 102.822c0-5.659-4.587-10.246-10.246-10.246h-34.083c-13.699 0-24.805 11.106-24.805 24.805v18.461l8.472 6.495h66.241l8.472-14.267v-11.542c0-5.659-4.587-10.246-10.246-10.246h-.345c-1.911 0-3.46-1.549-3.46-3.46z" fill="#4a80aa" data-original="#4A80AA" class="" data-old_color="#4a80aa" style="fill:#898B8C"/><g><path d="m171.222 128.071-16.254-1.524c-6.897-.647-13.818.959-19.726 4.578-5.037 3.085-10.828 4.718-16.734 4.718h-30.471v14.719c0 2.979 2.415 5.394 5.394 5.394.926 0 1.704.714 1.762 1.638 1.12 18.05 16.105 32.345 34.437 32.345 18.349 0 33.344-14.321 34.397-32.394.052-.896.805-1.59 1.703-1.59h.088c3.029 0 5.48-2.456 5.459-5.479-.055-8.122-.055-22.405-.055-22.405z" fill="#ffddce" data-original="#FFDDCE" class=""/></g></g></g></g></g></g></g></g></g> </svg>
