<?xml version="1.0"?>
<svg xmlns="http://www.w3.org/2000/svg" xmlns:xlink="http://www.w3.org/1999/xlink" version="1.1" id="Layer_1" x="0px" y="0px" viewBox="0 0 511.999 511.999" style="enable-background:new 0 0 511.999 511.999;" xml:space="preserve" width="512px" height="512px" class=""><g><path style="fill:#E85757" d="M428.628,204.441c-6.684-3.185-13.647-5.871-20.843-8.019c-6.756-2.019-13.716-3.559-20.843-4.581  c-6.809-0.977-13.763-1.497-20.843-1.497c-11.982,0-23.63,1.453-34.779,4.192c-6.967,1.712-13.74,3.925-20.276,6.602  c-1.308,0.535-2.605,1.088-3.893,1.661c-23.186,10.289-43.209,26.455-58.177,46.59c-4.456,5.993-8.471,12.333-11.979,18.981  c-0.931,1.765-1.837,3.542-2.697,5.348c-2.247,4.717-4.233,9.581-5.969,14.558c-0.724,2.077-1.419,4.169-2.051,6.285  c-1.01,3.378-1.899,6.809-2.665,10.284c-0.766,3.475-1.406,6.998-1.919,10.559c-0.489,3.406-0.863,6.848-1.114,10.323  c-0.252,3.475-0.381,6.984-0.381,10.52c0,12.785,1.659,25.188,4.765,37.01c1.035,3.941,2.232,7.818,3.581,11.623  c1.28,3.611,2.697,7.159,4.245,10.635c1.548,3.477,3.229,6.881,5.038,10.208c1.998,3.675,4.152,7.256,6.45,10.733  c2.298,3.477,4.74,6.849,7.317,10.11c26.743,33.832,68.13,55.581,114.503,55.581c80.451,0,145.901-65.451,145.901-145.901  C512,278.16,477.877,227.899,428.628,204.441z" data-original="#FF3F62" class="" data-old_color="#FF3F62"/><path style="fill:#07D8BD" d="M20.843,349.962h45.302c2.693-7.208,5.887-14.169,9.547-20.843  c4.014-7.314,8.585-14.279,13.651-20.843c12.295-15.93,27.521-29.482,44.868-39.842c7.209-4.306,14.782-8.065,22.665-11.208  c7.74-3.088,15.777-5.582,24.053-7.437c-19.809-18.265-45.774-28.53-73.069-28.53C48.385,221.259,0,269.645,0,329.119  C0,340.631,9.332,349.962,20.843,349.962z" data-original="#9CDD05" class="" data-old_color="#9CDD05"/><g>
	<path style="fill:#07C8B0" d="M128.703,117.047c0-11.237,2.161-21.973,6.049-31.845c2.607-6.618,5.996-12.841,10.062-18.557   c-10.359-7.616-23.136-12.129-36.953-12.129c-34.478,0-62.529,28.052-62.529,62.53s28.051,62.528,62.529,62.528   c13.815,0,26.591-4.512,36.953-12.128c-4.066-5.717-7.456-11.939-10.063-18.557C130.863,139.017,128.703,128.282,128.703,117.047z" data-original="#EFC27B" class="" data-old_color="#EFC27B"/>
	<path style="fill:#07C8B0" d="M215.896,29.852c-29.309,0-55.266,14.551-71.083,36.792c-4.066,5.717-7.455,11.939-10.062,18.557   c-3.888,9.873-6.049,20.608-6.049,31.845c0,11.234,2.161,21.97,6.047,31.84c2.607,6.62,5.997,12.842,10.063,18.557   c15.816,22.242,41.774,36.793,71.083,36.793c48.079,0,87.193-39.114,87.193-87.192S263.975,29.852,215.896,29.852z" data-original="#EFC27B" class="" data-old_color="#EFC27B"/>
</g><path style="fill:#07C8B0" d="M134.211,268.435c-17.347,10.36-32.573,23.912-44.868,39.842  c-5.066,6.564-9.636,13.529-13.651,20.843c-3.66,6.674-6.856,13.635-9.547,20.843C59.657,367.331,56.1,386.119,56.1,405.722  c0,11.511,9.332,20.843,20.843,20.843h174.652c-5.155-6.522-9.77-13.491-13.768-20.843c-3.618-6.652-6.723-13.62-9.283-20.843  c-5.397-15.22-8.346-31.587-8.346-48.634c0-7.074,0.516-14.033,1.494-20.843c1.025-7.123,2.564-14.087,4.584-20.843  c0.632-2.118,1.326-4.209,2.051-6.285c1.737-4.977,3.723-9.841,5.969-14.558c0.86-1.805,1.766-3.584,2.697-5.348  c3.509-6.648,7.523-12.988,11.979-18.981c-10.833-2.282-21.902-3.461-33.078-3.461c-12.01,0-23.71,1.341-34.968,3.864  c-8.276,1.854-16.313,4.349-24.053,7.437C148.993,260.37,141.42,264.127,134.211,268.435z" data-original="#A4E276" class="active-path" data-old_color="#A4E276"/><path style="fill:#FFFFFF" d="M407.785,315.401h-41.686h-41.685c-11.511,0-20.843,9.332-20.843,20.843  c0,11.512,9.332,20.843,20.843,20.843h41.685h41.686c11.511,0,20.843-9.331,20.843-20.843  C428.628,324.733,419.296,315.401,407.785,315.401z" data-original="#830018" class="" data-old_color="#830018"/><path style="fill:#FB5252" d="M234.296,273.715c-2.247,4.717-4.233,9.581-5.969,14.558c-0.724,2.077-1.417,4.169-2.051,6.285  c-2.02,6.756-3.559,13.72-4.584,20.843c-0.978,6.81-1.494,13.769-1.494,20.843c0,17.047,2.949,33.414,8.346,48.634  c2.561,7.223,5.665,14.191,9.283,20.843c3.998,7.352,8.612,14.321,13.768,20.843c26.743,33.832,68.13,55.581,114.503,55.581V357.087  h-41.683c-11.511,0-20.843-9.331-20.843-20.843c0-11.511,9.332-20.843,20.843-20.843h41.685V190.343  c-47.928,0-90.516,23.248-117.125,59.043c-4.456,5.994-8.471,12.334-11.979,18.981C236.064,270.132,235.156,271.91,234.296,273.715z  " data-original="#FF0C38" class="" data-old_color="#FF0C38"/><path style="fill:#00BFA6" d="M144.813,66.644c-4.066,5.717-7.455,11.939-10.062,18.557c-3.888,9.873-6.049,20.608-6.049,31.844  c0,11.234,2.161,21.97,6.047,31.841c2.607,6.62,5.997,12.842,10.063,18.557c15.816,22.242,41.774,36.793,71.083,36.793V29.851  C186.587,29.852,160.63,44.403,144.813,66.644z" data-original="#ECB45C" class="" data-old_color="#ECB45C"/><path style="fill:#00BFA6" d="M156.874,257.226c-7.883,3.145-15.454,6.902-22.665,11.208  c-17.347,10.36-32.573,23.912-44.868,39.842c-5.066,6.564-9.638,13.529-13.651,20.843c-3.66,6.674-6.856,13.635-9.547,20.843  c-6.488,17.368-10.045,36.156-10.045,55.759c0,11.511,9.332,20.843,20.843,20.843h138.953V245.925  c-12.01,0-23.71,1.341-34.968,3.864C172.652,251.644,164.615,254.139,156.874,257.226z" data-original="#64C37D" class="" data-old_color="#64C37D"/><path style="fill:#00BFA6" d="M45.331,117.045c0,34.478,28.051,62.528,62.529,62.528V54.515  C73.381,54.515,45.331,82.567,45.331,117.045z" data-original="#ECB45C" class="" data-old_color="#ECB45C"/></g> </svg>
