<svg id="Layer_1" data-name="Layer 1" xmlns="http://www.w3.org/2000/svg" viewBox="0 0 1458.45 594.06"><defs><style>.cls-1{fill:#0fbaa9;}.cls-2{fill:#0e9b8a;}.cls-3{fill:#098c79;}</style></defs><path d="M-91-27.5a1.5,1.5,0,0,0,0-3,1.5,1.5,0,0,0,0,3Z" transform="translate(92.45 30.5)"/><path class="cls-1" d="M834,0H483.78c-.18,2-.28,4-.28,6a66.57,66.57,0,0,0,26.58,53.34A493.56,493.56,0,0,1,657.63,308.19c18.2,89.24,96.6,156.36,190.56,156.36h.75a230.51,230.51,0,0,1,101.86,43.7,193.42,193.42,0,0,0,238.75,25.41,289.74,289.74,0,0,1,146.3-24,127.53,127.53,0,0,0,30.15,3.72V0Z" transform="translate(92.45 30.5)"/><path class="cls-2" d="M667,0S860.43,36.11,880,143c39,213,170,184,170,184s125-38,192,27,124,46,124,46V0Z" transform="translate(92.45 30.5)"/><path class="cls-3" d="M873,0s135-9,157,73,33,121,88,120c0,0,87-23,134,42s114,65,114,65V0Z" transform="translate(92.45 30.5)"/></svg>