<svg xmlns="http://www.w3.org/2000/svg" viewBox="0 0 882.5 563.85"><defs><style>.cls-1{fill:#0fbaa9;}.cls-2{fill:#0e9b8a;}.cls-3{fill:#098c79;}</style></defs><g id="Layer_2" data-name="Layer 2"><g id="Layer_1-2" data-name="Layer 1"><path class="cls-1" d="M350.5.29H.28c-.18,2-.28,4-.28,6A66.57,66.57,0,0,0,26.58,59.63,493.56,493.56,0,0,1,174.13,308.48c18.2,89.24,96.6,156.36,190.56,156.36h.75a230.51,230.51,0,0,1,101.86,43.7,193.42,193.42,0,0,0,238.75,25.41,289.74,289.74,0,0,1,146.3-24,127,127,0,0,0,30.15,3.73V.29Z"/><path class="cls-2" d="M183.5.29s193.43,36.11,213,143c39,213,170,184,170,184s125-38,192,27,124,46,124,46V.29Z"/><path class="cls-3" d="M389.5.29s135-9,157,73,33,121,88,120c0,0,87-23,134,42s114,65,114,65V.29Z"/></g></g></svg>