<?xml version="1.0" standalone="no"?><svg xmlns="http://www.w3.org/2000/svg" viewBox="0 0 1440 320"><path fill=" #099e96" fill-opacity="0.5" d="M0,288L26.7,272C53.3,256,107,224,160,208C213.3,192,267,192,320,202.7C373.3,213,427,235,480,250.7C533.3,267,587,277,640,272C693.3,267,747,245,800,245.3C853.3,245,907,267,960,272C1013.3,277,1067,267,1120,234.7C1173.3,203,1227,149,1280,117.3C1333.3,85,1387,75,1413,69.3L1440,64L1440,320L1413.3,320C1386.7,320,1333,320,1280,320C1226.7,320,1173,320,1120,320C1066.7,320,1013,320,960,320C906.7,320,853,320,800,320C746.7,320,693,320,640,320C586.7,320,533,320,480,320C426.7,320,373,320,320,320C266.7,320,213,320,160,320C106.7,320,53,320,27,320L0,320Z"></path></svg>