<?xml version="1.0" standalone="no"?><svg xmlns="http://www.w3.org/2000/svg" viewBox="0 0 1440 320"><path fill=" #099e96" fill-opacity="0.5" d="M0,160L40,181.3C80,203,160,245,240,266.7C320,288,400,288,480,256C560,224,640,160,720,138.7C800,117,880,139,960,170.7C1040,203,1120,245,1200,250.7C1280,256,1360,224,1400,208L1440,192L1440,320L1400,320C1360,320,1280,320,1200,320C1120,320,1040,320,960,320C880,320,800,320,720,320C640,320,560,320,480,320C400,320,320,320,240,320C160,320,80,320,40,320L0,320Z"></path></svg>