<svg height="512" viewBox="0 0 256 256" width="512" xmlns="http://www.w3.org/2000/svg"><path d="m121.9 216.583a8.988 8.988 0 0 1 -6.738-3.041l-12.156-13.772a8.987 8.987 0 0 1 13.475-11.894l5.364 6.08 14.737-16.964a8.986 8.986 0 1 1 13.566 11.788l-21.467 24.71a8.993 8.993 0 0 1 -6.747 3.093zm-12.16-26.744a3.984 3.984 0 0 0 -2.984 6.622l12.153 13.773a3.986 3.986 0 0 0 2.988 1.349h.026a3.98 3.98 0 0 0 2.982-1.372l21.469-24.711a3.986 3.986 0 1 0 -6.017-5.229l-16.61 19.119a2.5 2.5 0 0 1 -1.878.86 2.411 2.411 0 0 1 -1.885-.846l-7.252-8.219a3.979 3.979 0 0 0 -2.992-1.346z" fill="#f9b087"/><g fill="#846f75"><path d="m172.568 87.863a34.031 34.031 0 1 0 -34.03-34.03 34.07 34.07 0 0 0 34.03 34.03zm0-5a29.062 29.062 0 0 1 -28.923-26.64 34.092 34.092 0 0 0 28.923-21.14 34.1 34.1 0 0 0 28.925 21.14 29.064 29.064 0 0 1 -28.925 26.64zm28.907-31.655a29.07 29.07 0 0 1 -26.282-26.282 29.072 29.072 0 0 1 26.282 26.282zm-31.531-26.282a29.07 29.07 0 0 1 -26.282 26.282 29.072 29.072 0 0 1 26.282-26.282z"/><path d="m200.454 97.22h-55.77a30.534 30.534 0 0 0 -30.5 30.5v13.33a2.5 2.5 0 0 0 5 0v-13.33a25.529 25.529 0 0 1 25.5-25.5h55.77a25.529 25.529 0 0 1 25.5 25.5v82.58h-47.954a2.5 2.5 0 0 0 0 5h50.454a2.5 2.5 0 0 0 2.5-2.5v-85.08a30.535 30.535 0 0 0 -30.5-30.5z"/><path d="m74.13 125.634a28.783 28.783 0 1 0 -28.783-28.782 28.815 28.815 0 0 0 28.783 28.782zm0-5a23.815 23.815 0 0 1 -23.664-21.407 28.838 28.838 0 0 0 23.664-16.948 28.838 28.838 0 0 0 23.663 16.948 23.816 23.816 0 0 1 -23.663 21.407zm23.631-26.434a23.824 23.824 0 0 1 -20.98-20.98 23.825 23.825 0 0 1 20.98 20.98zm-26.283-20.98a23.823 23.823 0 0 1 -20.978 20.98 23.824 23.824 0 0 1 20.978-20.98z"/><path d="m79 210.3h-48.954v-47.2a25.529 25.529 0 0 1 25.5-25.5h52.266a2.5 2.5 0 0 0 0-5h-52.266a30.535 30.535 0 0 0 -30.5 30.5v49.7a2.5 2.5 0 0 0 2.5 2.5h51.454a2.5 2.5 0 0 0 0-5z"/><path d="m128 150.025a43.087 43.087 0 1 0 43.086 43.087 43.135 43.135 0 0 0 -43.086-43.087zm0 81.173a38.087 38.087 0 1 1 38.086-38.086 38.129 38.129 0 0 1 -38.086 38.088z"/><path d="m168.648 61.282c-3.264 1.429-8.915 3.512-10.754 3.432a1.546 1.546 0 0 1 -1.4-1.034 2.5 2.5 0 0 0 -3.335-3.706 4.629 4.629 0 0 0 -1.428 5.224 6.532 6.532 0 0 0 5.949 4.512c.081 0 .163.005.247.005 3.723 0 11.225-3.2 12.72-3.852a2.5 2.5 0 0 0 -2-4.581z"/><path d="m191.974 59.974a2.5 2.5 0 0 0 -3.335 3.706 1.548 1.548 0 0 1 -1.4 1.034c-1.789.062-7.39-1.96-10.755-3.432a2.5 2.5 0 0 0 -2 4.581c1.495.654 9 3.852 12.721 3.852.084 0 .167 0 .247-.005a6.531 6.531 0 0 0 5.948-4.51 4.627 4.627 0 0 0 -1.426-5.226z"/></g></svg>