<?xml version="1.0"?>
<svg xmlns="http://www.w3.org/2000/svg" xmlns:xlink="http://www.w3.org/1999/xlink" xmlns:svgjs="http://svgjs.com/svgjs" version="1.1" width="512" height="512" x="0" y="0" viewBox="0 0 463.079 463.079" style="enable-background:new 0 0 512 512" xml:space="preserve" class=""><g>
<g xmlns="http://www.w3.org/2000/svg" id="XMLID_1652_">
	<g id="XMLID_807_">
		<path id="XMLID_33_" style="" d="M463.079,23.497c0-8.284-6.716-15-15-15H15c-8.284,0-15,6.716-15,15v334.679    c0,8.284,6.716,15,15,15h433.079c8.284,0,15-6.716,15-15V23.497z" fill="#84ceca" data-original="#1a6fb0" class=""/>
	</g>
	<g id="XMLID_808_">
		<path id="XMLID_34_" style="" d="M463.079,23.497c0-8.284-6.716-15-15-15H228.474v364.679h219.605    c8.284,0,15-6.716,15-15L463.079,23.497L463.079,23.497z" fill="#84ceca" data-original="#165c92" class=""/>
	</g>
	<g id="XMLID_817_">
		<polygon id="XMLID_35_" style="" points="373.597,454.583 338.812,438.308 304.027,454.583 304.027,346.9     373.597,346.9   " fill="#cd2a00" data-original="#cd2a00"/>
	</g>
	<g id="XMLID_820_">
		<polygon id="XMLID_36_" style="" points="338.813,346.9 338.813,438.308 373.597,454.582 373.597,346.9   " fill="#ab2300" data-original="#ab2300"/>
	</g>
	<g id="XMLID_821_">
		<circle id="XMLID_37_" style="" cx="338.812" cy="293.809" r="75.279" fill="#21c3ac" data-original="#ffd422" class=""/>
	</g>
	<g id="XMLID_822_">
		<path id="XMLID_38_" style="" d="M377.638,108.349H79.31c-8.284,0-15-6.716-15-15s6.716-15,15-15h298.328    c8.284,0,15,6.716,15,15S385.922,108.349,377.638,108.349z" fill="#ffffff" data-original="#ffffff" class=""/>
	</g>
	<g id="XMLID_823_">
		<path id="XMLID_39_" style="" d="M377.638,177.344H79.31c-8.284,0-15-6.716-15-15s6.716-15,15-15h298.328    c8.284,0,15,6.716,15,15S385.922,177.344,377.638,177.344z" fill="#ffffff" data-original="#ffffff" class=""/>
	</g>
	<g id="XMLID_824_">
		<path id="XMLID_40_" style="" d="M175.038,312.546H79.31c-8.284,0-15-6.716-15-15s6.716-15,15-15h95.729    c8.284,0,15,6.716,15,15S183.322,312.546,175.038,312.546z" fill="#ffffff" data-original="#ffffff" class=""/>
	</g>
	<g id="XMLID_825_">
		<path id="XMLID_41_" style="" d="M338.813,218.529v150.558c41.575,0,75.279-33.704,75.279-75.279    C414.091,252.233,380.388,218.529,338.813,218.529z" fill="#2cbda2" data-original="#eebf00" class=""/>
	</g>
</g>
<g xmlns="http://www.w3.org/2000/svg">
</g>
<g xmlns="http://www.w3.org/2000/svg">
</g>
<g xmlns="http://www.w3.org/2000/svg">
</g>
<g xmlns="http://www.w3.org/2000/svg">
</g>
<g xmlns="http://www.w3.org/2000/svg">
</g>
<g xmlns="http://www.w3.org/2000/svg">
</g>
<g xmlns="http://www.w3.org/2000/svg">
</g>
<g xmlns="http://www.w3.org/2000/svg">
</g>
<g xmlns="http://www.w3.org/2000/svg">
</g>
<g xmlns="http://www.w3.org/2000/svg">
</g>
<g xmlns="http://www.w3.org/2000/svg">
</g>
<g xmlns="http://www.w3.org/2000/svg">
</g>
<g xmlns="http://www.w3.org/2000/svg">
</g>
<g xmlns="http://www.w3.org/2000/svg">
</g>
<g xmlns="http://www.w3.org/2000/svg">
</g>
</g></svg>
