<svg id="Capa_1" enable-background="new 0 0 512 512" height="512" viewBox="0 0 512 512" width="512" xmlns="http://www.w3.org/2000/svg"><g><path d="m186.134 287.754h-116.268v-85.631l58.134-26.036 58.134 26.036z" fill="#c6865c"/><path d="m474.794 275.044h-40.326s-44.85 29.004-49.637 29.004c-4.786 0-49.637-29.004-49.637-29.004h-41.118l-20.97 16.786-4.483 25.759 50.589 21.626 23.703 87.506h161.787c4.031 0 7.298-3.268 7.298-7.298v-107.173c0-20.548-16.658-37.206-37.206-37.206z" fill="#407093"/><path d="m476.635 426.721v-88.072c0-4.267-3.459-7.726-7.726-7.726s-7.726 3.459-7.726 7.726v88.072z" fill="#365e7d"/><path d="m252.321 304.481-34.396-29.437h-39.457l-52.307 24.122-46.967-24.122h-41.988c-20.548 0-37.206 16.658-37.206 37.206v107.173c0 4.031 3.268 7.298 7.298 7.298h161.787z" fill="#dd636e"/><path d="m52.479 426.721v-88.072c0-4.267-3.459-7.726-7.726-7.726s-7.726 3.459-7.726 7.726v88.072z" fill="#da4a54"/><path d="m317.651 314.14h-27.382s-29.461 16.783-33.705 16.783c-4.243 0-33.705-16.783-33.705-16.783h-28.51c-13.953 0-25.264 11.311-25.264 25.264v87.318h173.83v-87.318c0-13.953-11.311-25.264-25.264-25.264z" fill="#90d8f9"/><path d="m256.564 339.215c15.917 0 29.364-10.571 33.705-25.075h-9.212c-1.997 0-3.615-1.619-3.615-3.615v-14.562h-42.883v14.563c0 1.997-1.619 3.615-3.615 3.615h-8.084c4.34 14.503 17.787 25.074 33.704 25.074z" fill="#eaac9d"/><path d="m256 206.925c-16.704 0-31.527 20.263-41.361 32.08.09 1.225.185 2.513.283 3.845.615 8.356 1.363 18.509 1.952 26.502 1.509 20.494 26.775 34.696 39.126 34.696 12.352 0 37.617-14.202 39.126-34.696.444-6.026 1.247-16.932 1.952-26.502.097-1.312.191-2.599.283-3.845-9.834-11.817-24.657-32.08-41.361-32.08z" fill="#ffddce"/><path d="m261.198 219.853c-.058.786-.117 1.585-.176 2.394-.705 9.569-1.508 20.475-1.952 26.502-1.436 19.495-24.368 33.297-37.232 34.596 8.306 12.684 24.88 20.704 34.162 20.704 12.352 0 37.617-14.202 39.126-34.696.444-6.026 1.247-16.932 1.952-26.502.097-1.312.191-2.599.283-3.845l-12.165-26.86z" fill="#ffcbbe"/><path d="m209.902 426.721v-58.974c0-4.267-3.459-7.726-7.726-7.726s-7.726 3.459-7.726 7.726v58.974z" fill="#75cef9"/><path d="m319.211 426.721v-58.974c0-4.267-3.459-7.726-7.726-7.726-4.268 0-7.726 3.459-7.726 7.726v58.974z" fill="#75cef9"/><path d="m188.054 202.123h-1.92l-5.134-39.386h18.455c7.327 0 13.267 5.94 13.267 13.267v1.451c0 13.624-11.044 24.668-24.668 24.668z" fill="#eaac9d"/><path d="m67.946 202.123h1.92l3.105-39.386h-16.426c-7.327 0-13.267 5.94-13.267 13.267v1.451c0 13.624 11.044 24.668 24.668 24.668z" fill="#ffcbbe"/><path d="m128.831 311.972c23.44 0 43.244-15.568 49.637-36.928h-13.566c-2.94 0-5.324-2.384-5.324-5.324v-21.446h-63.154v21.446c0 2.941-2.384 5.324-5.324 5.324h-11.906c6.392 21.36 26.196 36.928 49.637 36.928z" fill="#eaac9d"/><path d="m162.69 125.801-96.346 28.506c1.165 15.821 2.694 36.587 4.034 54.778 2.223 30.182 39.431 51.097 57.622 51.097 18.19 0 55.399-20.916 57.622-51.097.298-4.042 2.224-30.197 3.413-46.348z" fill="#ffddce"/><path d="m161.948 124.008-8.401 10.406-.569 7.72c-1.189 16.151-3.116 42.306-3.413 46.348-2.223 30.182-39.431 51.097-57.622 51.097-2.078 0-4.405-.273-6.899-.802 13.031 13.34 31.66 21.405 42.955 21.405 18.19 0 55.399-20.916 57.622-51.097.298-4.042 2.224-30.197 3.413-46.348z" fill="#ffcbbe"/><path d="m159.502 128.989c1.176-1.176 3.188-.343 3.188 1.32v8.869c0 13.011 10.547 23.558 23.558 23.558h2.787c.353-4.795.641-8.708.803-10.899 2.646-35.937-25.797-66.558-61.838-66.558-36.038 0-64.485 30.618-61.838 66.559.06.808.741 10.062.803 10.899l31.693-3.975c23.026-2.888 44.434-13.363 60.844-29.773z" fill="#c6865c"/><path d="m256 185.285c-24.471 0-43.786 20.79-41.989 45.195.156 2.112.374 5.074.628 8.525 9.834-11.817 24.658-19.4 41.361-19.4 16.704 0 31.527 7.583 41.361 19.4.236-3.205.452-6.138.628-8.525 1.797-24.403-17.517-45.195-41.989-45.195z" fill="#c6865c"/><path d="m384.831 311.972c23.44 0 43.244-15.568 49.637-36.928h-13.566c-2.94 0-5.324-2.384-5.324-5.324v-21.446c-11.07 7.572-52.084 7.572-63.154 0v21.446c0 2.941-2.384 5.324-5.324 5.324h-11.905c6.391 21.36 26.195 36.928 49.636 36.928z" fill="#eaac9d"/><path d="m444.054 202.123h-1.92l-2.981-39.386h16.302c7.327 0 13.267 5.94 13.267 13.267v1.451c0 13.624-11.044 24.668-24.668 24.668z" fill="#eaac9d"/><path d="m323.946 202.123h1.92l4.204-39.386h-17.525c-7.327 0-13.267 5.94-13.267 13.267v1.451c0 13.624 11.044 24.668 24.668 24.668z" fill="#ffcbbe"/><path d="m443.988 169.548c-7.62-7.619-28.673-54.753-28.673-54.753l-31.315 16.463-31.316-16.462s-21.053 47.134-28.673 54.753l-.508.507c.906 12.306 2.007 27.258 2.874 39.029 2.223 30.182 39.431 51.097 57.622 51.097 18.19 0 55.399-20.916 57.622-51.097.654-8.875 1.836-24.936 2.874-39.029z" fill="#ffddce"/><path d="m410.619 119.855s-4.4 59.751-5.054 68.626c-2.223 30.182-39.431 51.097-57.621 51.097-2.078 0-4.405-.273-6.899-.802 13.031 13.34 31.66 21.405 42.955 21.405 18.19 0 55.399-20.916 57.621-51.097.654-8.875 1.837-24.936 2.874-39.029l-5.112-21.681z" fill="#ffcbbe"/><path d="m341.583 142.807 1.646-4.153c4.59-11.582 19.305-15.064 28.598-6.765l7.879 7.036c2.446 2.184 6.141 2.184 8.586 0l7.879-7.036c9.293-8.298 24.008-4.817 28.598 6.765l1.646 4.153c3.971 10.019 9.951 19.12 17.571 26.741l.508.507c.508-6.904.982-13.336 1.342-18.218 2.648-35.937-25.795-66.558-61.836-66.558-36.038 0-64.485 30.618-61.838 66.559.31 4.216.79 10.727 1.342 18.218l.508-.507c7.62-7.622 13.6-16.722 17.571-26.742z" fill="#ffc250"/></g></svg>