<?xml version="1.0"?>
<svg xmlns="http://www.w3.org/2000/svg" id="Capa_1" enable-background="new 0 0 512 512" height="512px" viewBox="0 0 512 512" width="512px" class=""><g><g><g><g><g><g><g><g><g><g><g><g><path d="m353.507 94.207c-17.877-1.237-31.999-16.121-31.999-34.313v-56.886c-3.712-1.956-7.875-3.008-12.148-3.008h-251.791c-19.001 0-34.405 15.404-34.405 34.406v443.189c0 19.002 15.404 34.406 34.406 34.406h295.938v-417.794z" fill="#f6f9f9" data-original="#F6F9F9" class="active-path" data-old_color="#f6f9f9" style="fill:#FFFFFF"/></g><path d="m352.155 94.085v417.915h28.893c19.002 0 34.406-15.404 34.406-34.406v-371.5c0-3.762-.819-7.437-2.348-10.796l-1.516-1.213z" fill="#e7ecf1" data-original="#E7ECF1" class="" data-old_color="#e7ecf1" style="fill:#D2D6DA"/><path d="m407.82 87.664-80.03-80.03c-2.228-2.228-4.821-4.005-7.634-5.286v58.544c0 19.002 15.404 34.406 34.406 34.406h58.544c-1.281-2.814-3.058-5.406-5.286-7.634z" fill="#fc8086" data-original="#FC8086" class="" style="fill:#01BFA6" data-old_color="#fc8086"/></g></g></g></g></g></g></g></g></g><g><g><g><g><g><g><g><path d="m442.286 312.579c-1.683 0-3.377-.547-4.798-1.675-3.342-2.652-3.902-7.512-1.25-10.855l36.186-45.604c1.529-1.928 1.205-4.741-.722-6.271l-36.8-29.2c-3.342-2.652-3.902-7.512-1.25-10.855 2.652-3.344 7.512-3.902 10.855-1.25l36.799 29.199c8.603 6.824 10.048 19.377 3.223 27.98l-36.187 45.605c-1.524 1.924-3.779 2.926-6.056 2.926z" fill="#8c9ba6" data-original="#8C9BA6" class=""/></g><g><path d="m305.376 406.628-23.772-18.862c-11.093 13.98-22.255 19.572-34.177 19.915-.944.027-1.722.747-1.822 1.686l-5.38 50.489c-.256 2.4 2.075 4.249 4.354 3.454l47.945-16.716c.891-.311 1.416-1.232 1.228-2.157-2.377-11.688.531-23.829 11.624-37.809z" fill="#c2d0da" data-original="#C2D0DA" class=""/><g fill="#7c8b96"><path d="m447.564 227.577-23.064-18.3-13.731 1.226-65.074 73.069c-14.908 16.739-28.278 34.786-39.951 53.921l-27.686 45.388c-2.26 3.704-1.404 8.512 1.995 11.209l19.517 15.486c3.399 2.697 8.276 2.438 11.369-.605l37.907-37.278c15.982-15.717 30.517-32.84 43.429-51.162l56.365-79.98z" data-original="#7C8B96" class="" style="fill:#01BFA6" data-old_color="#7C8B96"/><path d="m475.326 168.031c-8.791-6.975-21.498-5.877-28.962 2.504l-16.205 18.196-.467 10.573 24.761 19.647 10.981-2.23 14.036-19.917c6.465-9.173 4.647-21.798-4.144-28.773z" data-original="#7C8B96" class="" style="fill:#01BFA6" data-old_color="#7C8B96"/></g></g><path d="m410.768 210.503 37.871 30.049 16.796-23.832-35.276-27.99z" fill="#c2d0da" data-original="#C2D0DA" class=""/></g><path d="m275.112 432.788c2.653-3.343 2.093-8.203-1.249-10.855-3.343-2.653-8.203-2.094-10.855 1.25l-21.804 27.479-.98 9.194c-.256 2.4 2.075 4.249 4.354 3.454l8.731-3.044z" fill="#7c8b96" data-original="#7C8B96" class="" style="fill:#01BFA6" data-old_color="#7c8b96"/></g></g><g><path d="m179.206 467.418c-9.847 0-21.573-1.918-29.874-7.774-6.518-4.597-7.056-4.375-12.202-2.247-6.125 2.532-15.381 6.359-34.731 5.013-6.83-.475-12.967-2.825-18.01-6.722-9.026 4.244-16.029 6.874-16.434 7.025-3.997 1.494-8.446-.537-9.94-4.533-1.493-3.996.535-8.447 4.531-9.942.08-.03 5.065-1.904 11.904-4.989-.827-1.714-1.545-3.524-2.147-5.426-4.911-15.513-.969-32.875 9.373-41.284 5.008-4.071 15.843-9.532 32.148-.368 12.359 6.947 14.424 15.235 13.98 20.965-.759 9.787-9.412 19.506-26.402 29.611.661.114 1.351.198 2.07.248 15.727 1.096 22.396-1.662 27.754-3.877 8.182-3.383 14.482-4.939 27.013 3.901 8.228 5.803 23.96 5.518 30.555 4.075 4.171-.912 8.287 1.728 9.199 5.896.912 4.169-1.728 8.287-5.896 9.199-3.337.73-7.871 1.229-12.891 1.229zm-82.291-60.769c-2.116 0-3.949.626-5.489 1.878-5.344 4.345-7.313 15.394-4.389 24.63.309.976.725 2.089 1.28 3.251.084-.046.17-.093.254-.138 17.151-9.35 23.556-16.795 23.829-20.33.19-2.462-4.234-5.226-6.145-6.3-3.548-1.993-6.669-2.991-9.34-2.991z" fill="#ddeafb" data-original="#DDEAFB" class="" style="fill:#01BFA6" data-old_color="#ddeafb"/></g></g><g><g><path d="m278.089 162.999h-208.864c-4.267 0-7.726-3.459-7.726-7.726s3.459-7.726 7.726-7.726h208.864c4.268 0 7.726 3.459 7.726 7.726s-3.458 7.726-7.726 7.726z" fill="#ddeafb" data-original="#DDEAFB" class="" style="fill:#01BFA6" data-old_color="#ddeafb"/></g><g><path d="m278.089 208.324h-208.864c-4.267 0-7.726-3.459-7.726-7.726s3.459-7.726 7.726-7.726h208.864c4.268 0 7.726 3.459 7.726 7.726s-3.458 7.726-7.726 7.726z" fill="#ddeafb" data-original="#DDEAFB" class="" style="fill:#01BFA6" data-old_color="#ddeafb"/></g><g><path d="m278.089 253.648h-208.864c-4.267 0-7.726-3.459-7.726-7.726s3.459-7.726 7.726-7.726h208.864c4.268 0 7.726 3.459 7.726 7.726s-3.458 7.726-7.726 7.726z" fill="#ddeafb" data-original="#DDEAFB" class="" style="fill:#01BFA6" data-old_color="#ddeafb"/></g><g><path d="m157.978 298.973h-88.753c-4.267 0-7.726-3.459-7.726-7.726s3.459-7.726 7.726-7.726h88.753c4.267 0 7.726 3.459 7.726 7.726s-3.459 7.726-7.726 7.726z" fill="#ddeafb" data-original="#DDEAFB" class="" style="fill:#01BFA6" data-old_color="#ddeafb"/></g></g><path d="m155.48 85.509h-80.824c-3 0-5.431-2.432-5.431-5.431v-29.429c0-3 2.432-5.431 5.431-5.431h80.824c3 0 5.431 2.432 5.431 5.431v29.429c0 2.999-2.432 5.431-5.431 5.431z" fill="#bed8fb" data-original="#BED8FB" class="" style="fill:#01BFA6" data-old_color="#bed8fb"/></g></g></g></g> </svg>
