<?xml version="1.0" encoding="iso-8859-1"?>
<!-- Generator: Adobe Illustrator 19.0.0, SVG Export Plug-In . SVG Version: 6.00 Build 0)  -->
<svg version="1.1" id="Capa_1" xmlns="http://www.w3.org/2000/svg" xmlns:xlink="http://www.w3.org/1999/xlink" x="0px" y="0px"
	 viewBox="0 0 512 512" style="enable-background:new 0 0 512 512;" xml:space="preserve">
<path style="fill:#FAD557;" d="M412.836,293.962l-126.71-41.114v-83.396c0-26.165-21.287-47.452-47.452-47.452
	s-47.452,21.287-47.452,47.452v140.133l-33.924-16.07c-20.233-9.584-44.849-3.679-58.532,14.042
	c-11.302,14.636-13.161,34.73-4.738,51.192l35.063,68.528C155.687,479.257,209.167,512,267.609,512
	c85.796,0,155.597-69.801,155.597-155.598v-48.173C423.207,301.729,419.02,295.968,412.836,293.962z"/>
<path style="fill:#7FECA0;" d="M310.073,237.061c-5.6-6.104-5.192-15.593,0.913-21.193c22.045-20.225,34.688-48.971,34.688-78.868
	c0-59-48-107-107-107s-107,48-107,107c0,29.896,12.642,58.641,34.685,78.865c6.104,5.601,6.512,15.089,0.912,21.194
	s-15.089,6.512-21.194,0.912c-28.219-25.891-44.403-62.693-44.403-100.97c0-75.542,61.458-137,137-137s137,61.458,137,137
	c0,38.279-16.186,75.083-44.407,100.974C325.135,243.599,315.65,243.139,310.073,237.061z"/>
<path style="fill:#FCB12B;" d="M412.836,293.962l-126.71-41.114v-83.396c0-26.165-21.287-47.452-47.452-47.452v387.269
	c9.438,1.786,19.114,2.731,28.936,2.731c85.796,0,155.597-69.801,155.597-155.598v-48.173
	C423.207,301.729,419.02,295.968,412.836,293.962z"/>
<path style="fill:#3AD475;" d="M238.674,0v30c59,0,107,48,107,107c0,29.897-12.643,58.643-34.688,78.868
	c-6.104,5.6-6.513,15.089-0.913,21.193c5.577,6.078,15.062,6.538,21.194,0.913c28.221-25.891,44.407-62.694,44.407-100.974
	C375.674,61.458,314.216,0,238.674,0z"/>
<g>
</g>
<g>
</g>
<g>
</g>
<g>
</g>
<g>
</g>
<g>
</g>
<g>
</g>
<g>
</g>
<g>
</g>
<g>
</g>
<g>
</g>
<g>
</g>
<g>
</g>
<g>
</g>
<g>
</g>
</svg>
