<svg id="color" enable-background="new 0 0 24 24" height="512" viewBox="0 0 24 24" width="512" xmlns="http://www.w3.org/2000/svg"><path d="m21 0h-18c-1.654 0-3 1.346-3 3v16c0 1.654 1.346 3 3 3h18c1.654 0 3-1.346 3-3v-16c0-1.654-1.346-3-3-3z" fill="#607d8b"/><path d="m21 20h-18c-.551 0-1-.448-1-1v-14h20v14c0 .552-.449 1-1 1z" fill="#fafafa"/><path d="m17.491 11.826-5.25-1.786c-.156-.054-.326-.054-.482 0l-5.25 1.786c-.305.103-.509.388-.509.71v4.018c0 4.904 5.474 7.288 5.707 7.387.094.039.193.059.293.059s.199-.02.293-.06c.233-.099 5.707-2.482 5.707-7.386v-4.018c0-.322-.204-.607-.509-.71z" fill="#4caf50"/><path d="m15.286 15.618-2.75 3.5c-.168.214-.417.351-.688.377l-.098.005c-.237 0-.469-.084-.65-.241l-1.75-1.5c-.42-.359-.469-.991-.108-1.41.359-.419.991-.467 1.409-.108l.958.821 2.105-2.679c.341-.434.969-.511 1.404-.168.434.34.51.969.168 1.403z" fill="#fff"/><path d="m12 0h-9c-1.654 0-3 1.346-3 3v16c0 1.654 1.346 3 3 3h5.71c-.619-.548-1.228-1.214-1.712-2h-3.998c-.551 0-1-.448-1-1v-14h10z" fill="#546d79"/><path d="m12 5h-10v14c0 .552.449 1 1 1h3.999c-.594-.966-.999-2.113-.999-3.446v-4.018c0-.321.204-.606.509-.71l5.25-1.786c.078-.027.159-.04.241-.04z" fill="#dadada"/><path d="m12 10c-.082 0-.163.013-.241.04l-5.25 1.786c-.305.103-.509.388-.509.71v4.018c0 1.333.405 2.48.999 3.446.484.786 1.093 1.452 1.712 2 1.415 1.254 2.878 1.89 2.997 1.94.093.04.192.06.292.06v-4.532c-.05.013-.101.022-.152.027l-.098.005c-.237 0-.469-.084-.65-.241l-1.75-1.5c-.42-.359-.469-.991-.108-1.41.197-.23.477-.349.759-.349.23 0 .461.079.649.24l.958.821.392-.498z" fill="#429846"/><path d="m10.001 16c-.282 0-.562.118-.76.349-.36.419-.312 1.051.108 1.41l1.75 1.5c.182.156.413.241.65.241l.098-.005c.052-.005.103-.014.152-.027v-2.905l-.392.498-.958-.821c-.187-.161-.418-.24-.648-.24z" fill="#dedede"/></svg>